<?xml version="1.0" encoding="UTF-8" standalone="no"?>
<!-- Created with Inkscape (http://www.inkscape.org/) -->

<svg
   xmlns:dc="http://purl.org/dc/elements/1.1/"
   xmlns:cc="http://creativecommons.org/ns#"
   xmlns:rdf="http://www.w3.org/1999/02/22-rdf-syntax-ns#"
   xmlns:svg="http://www.w3.org/2000/svg"
   xmlns="http://www.w3.org/2000/svg"
   xmlns:sodipodi="http://sodipodi.sourceforge.net/DTD/sodipodi-0.dtd"
   xmlns:inkscape="http://www.inkscape.org/namespaces/inkscape"
   width="3291.0691mm"
   height="2096.4951mm"
   viewBox="0 0 3291.0691 2096.4951"
   version="1.1"
   id="svg8"
   inkscape:version="0.92.4 (5da689c313, 2019-01-14)"
   sodipodi:docname="USE-THIS.svg">
  <defs
     id="defs2" />
  <sodipodi:namedview
     id="base"
     pagecolor="#ffffff"
     bordercolor="#666666"
     borderopacity="1.0"
     inkscape:pageopacity="0.0"
     inkscape:pageshadow="2"
     inkscape:zoom="0.030935922"
     inkscape:cx="-2484.5956"
     inkscape:cy="3651.1916"
     inkscape:document-units="mm"
     inkscape:current-layer="layer1"
     showgrid="false"
     fit-margin-top="0"
     fit-margin-left="0"
     fit-margin-right="0"
     fit-margin-bottom="0"
     inkscape:window-width="1920"
     inkscape:window-height="986"
     inkscape:window-x="-11"
     inkscape:window-y="-11"
     inkscape:window-maximized="1" />
  <metadata
     id="metadata5">
    <rdf:RDF>
      <cc:Work
         rdf:about="">
        <dc:format>image/svg+xml</dc:format>
        <dc:type
           rdf:resource="http://purl.org/dc/dcmitype/StillImage" />
        <dc:title></dc:title>
      </cc:Work>
    </rdf:RDF>
  </metadata>
  <g
     inkscape:label="Layer 1"
     inkscape:groupmode="layer"
     id="layer1"
     transform="translate(1281.5241,651.45306)">
    <path
       style="fill:#000000;stroke-width:11.265;stroke:#000000;stroke-opacity:1;stroke-miterlimit:4;stroke-dasharray:none"
       d="m 334.13578,1444.9283 c -32.6399,-0.3291 -74.493,-1.427 -100.5843,-2.6386 -3.1287,-0.1453 -9.6176,-0.4451 -14.4198,-0.6663 -52.2976,-2.4084 -116.2906,-7.4091 -169.3334,-13.2324 -3.3469,-0.3675 -7.6927,-0.8419 -9.6573,-1.0544 -14.4541,-1.5629 -46.9781,-5.5331 -62.9708,-7.6868 -14.2824,-1.9233 -21.4537,-2.9138 -30.5594,-4.2208 -9.0491,-1.2988 -12.8388,-1.8543 -24.3416,-3.5677 -3.1207,-0.4648 -17.7357,-2.7257 -25.6646,-3.9702 -1.7463,-0.2741 -7.1636,-1.1556 -12.0386,-1.9588 -4.8749,-0.8033 -9.9351,-1.6353 -11.2448,-1.8489 -34.8245,-5.68 -91.4824,-16.3776 -130.3072,-24.6033 -2.4011,-0.5088 -6.6279,-1.4044 -9.3928,-1.9903 -13.4236,-2.8449 -27.8012,-6.0346 -49.6093,-11.0062 -1.528,-0.3484 -5.338,-1.2378 -8.4667,-1.9765 -3.1287,-0.7388 -6.7006,-1.5728 -7.9375,-1.8535 -10.0505,-2.2805 -50.2105,-12.2282 -65.749,-16.2862 -37.143,-9.7001 -65.9527,-17.6894 -97.4989,-27.0375 -7.6399,-2.264 -14.605,-4.3239 -15.4781,-4.5778 -22.8671,-6.6475 -77.4001,-24.2611 -107.2886,-34.6531 -3.4197,-1.1891 -7.8846,-2.7365 -9.9219,-3.4389 -4.2268,-1.4571 -19.0566,-6.7433 -28.8395,-10.2801 -19.187,-6.9364 -30.5101,-11.2038 -74.8771,-28.2192 -5.8209,-2.2324 -13.6194,-5.2171 -17.3302,-6.6326 -3.7108,-1.4156 -8.0566,-3.074 -9.6573,-3.6854 -1.6007,-0.6115 -7.3753,-2.816 -12.8323,-4.8991 -5.457,-2.0831 -10.0199,-3.8719 -10.1397,-3.9751 -0.2331,-0.2009 -0.6808,-54.4949 -1.5008,-182.0235 -0.137,-21.3188 -0.3123,-46.20288 -0.3894,-55.29798 -0.2195,-25.889 -0.397,-51.3408 -0.8035,-115.226 -0.2074,-32.59666 -0.4564,-67.07208 -0.5533,-76.61206 l -0.1762,-17.34537 4.3341,0.582 c 2.3837,0.3201 6.7152,0.89549 9.6257,1.2786 6.4825,0.85339 9.1837,1.39468 15.4781,3.10166 8.3445,2.26296 27.8531,8.34983 36.3247,11.33369 1.1947,0.4208 5.1487,1.79406 8.7867,3.05168 13.268,4.58661 22.3995,7.88654 37.7032,13.6252 56.3007,21.11192 113.0135,40.15319 170.9208,57.3865 1.9645,0.5847 5.3578,1.5946 7.5406,2.2443 6.6981,1.9937 21.1487,6.1546 33.0729,9.5231 13.6687,3.8613 39.7305,10.908 53.4459,14.4509 2.3283,0.6014 6.2955,1.6289 8.816,2.2832 2.5205,0.6543 4.6966,1.1518 4.8358,1.1054 0.1392,-0.046 -4.5811,-4.7188 -10.4897,-10.383 -15.7019,-15.0527 -38.8812,-38.23195 -54.7841,-54.78413 -19.0396,-19.8169 -30.971,-32.74602 -63.5905,-68.90785 -11.9736,-13.27383 -17.3939,-19.26989 -18.4311,-20.38903 -0.607,-0.65484 -3.6787,-4.04812 -6.8261,-7.54062 l -5.7225,-6.35 0.1355,-16.40417 c 0.075,-9.02229 0.1987,-41.34776 0.2761,-71.83438 0.2376,-93.68372 0.6001,-218.64143 1.3258,-456.93544 0.2111,-69.34067 0.5075,-171.674896 0.6586,-227.409376 0.5434,-200.410214 1.0393,-333.598694 1.2429,-333.786814 0.1141,-0.10538 1.3385,-0.38436 2.721,-0.61994 1.3824,-0.23562 4.1209,-0.72896 6.0854,-1.09636 7.764,-1.45193 13.8472,-2.57791 18.5208,-3.42815 17.5467,-3.1921 22.6678,-4.22 29.898,-6.00103 29.3191,-7.22228 56.6597,-19.1016 82.721,-35.94171 23.4135,-15.12917 45.2765,-34.61343 63.2296,-56.34997 29.8843,-36.18237 49.5489,-78.49853 57.1117,-122.89897 0.3718,-2.18281 1.8565,-12.22559 3.2993,-22.31729 1.4428,-10.09169 2.6672,-18.3924 2.7208,-18.44602 0.2049,-0.20495 56.6315,-0.41445 212.0019,-0.78712 88.4767,-0.21222 202.2409,-0.50782 252.8094,-0.65689 325.5532,-0.95968 510.7094,-0.80544 637.9104,0.53138 13.6062,0.143 28.5486,0.32659 33.2052,0.408 18.3811,0.32131 47.0415,0.91734 50.8,1.05645 16.0794,0.59511 23.8541,1.02002 27.1657,1.48468 2.3775,0.3336 2.6637,0.56773 4.0007,3.27265 3.2124,6.49899 6.6025,19.49047 9.4258,36.12103 4.1236,24.29066 10.8132,44.77597 21.9873,67.33105 12.3956,25.02052 28.5546,47.99899 49.49242,70.37917 35.1552,37.57715 72.1388,60.57526 118.6448,73.77892 11.6344,3.30316 15.5804,4.21257 38.6292,8.9026 18.4307,3.75032 27.2167,5.56579 27.2898,5.63886 0.095,0.0951 0.7439,203.79863 1.4138,443.889024 0.1362,48.822236 0.3162,106.448486 0.3999,128.058326 0.084,21.60985 0.2634,82.68891 0.3993,135.73126 0.1359,53.04235 0.3147,117.03844 0.3974,142.21355 0.2843,86.58143 0.6479,209.32675 0.6968,235.28227 l 0.049,25.99685 -2.2262,2.46618 c -1.2243,1.35642 -4.8455,5.30728 -8.0469,8.77972 -3.2015,3.47242 -6.5948,7.16114 -7.5407,8.19709 -0.9458,1.03597 -4.3391,4.73093 -7.5406,8.21102 -3.2014,3.48012 -8.6188,9.3753 -12.0385,13.10045 -21.3107,23.21391 -32.4141,35.23525 -36.7682,39.8081 -1.1085,1.16417 -4.3253,4.55745 -7.1484,7.54063 -28.6115,30.23375 -64.5953,65.6304 -95.3245,93.7689 -3.1628,2.8962 -5.7506,5.3748 -5.7506,5.5079 0,0.1332 0.223,0.1714 0.4955,0.085 0.2725,-0.087 3.3979,-0.8029 6.9453,-1.5921 9.3136,-2.0719 17.2612,-3.8744 23.9123,-5.423 3.2015,-0.7454 8.1426,-1.8927 10.9802,-2.5496 14.0697,-3.2567 47.9322,-11.5712 63.5,-15.5915 10.2735,-2.6531 26.8057,-6.9903 32.2792,-8.4684 29.6704,-8.0124 51.4053,-14.1537 77.2583,-21.8297 1.3825,-0.4105 4.2995,-1.2761 6.4823,-1.9236 5.4275,-1.61 13.8253,-4.1749 25.0032,-7.6367 5.1659,-1.5998 10.2856,-3.18253 11.377,-3.51704 2.3995,-0.73538 10.6106,-3.34698 20.1084,-6.39556 37.4201,-12.01103 74.5482,-24.79622 112.7125,-38.81316 38.1889,-14.02591 74.3675,-25.66181 88.9333,-28.60302 3.1404,-0.63415 3.8177,-0.67456 11.311,-0.67456 h 7.9703 v 218.91444 218.91448 l -7.2099,4.2266 c -3.9653,2.3246 -8.4339,4.8405 -9.9295,5.5908 -26.7153,13.4003 -130.4905,50.9362 -226.0127,81.7494 -34.3485,11.08 -69.896,21.7798 -102.9229,30.9798 -2.6922,0.7499 -5.9366,1.6547 -7.2099,2.0106 -1.2733,0.356 -3.3569,0.9381 -4.6302,1.2935 -12.9697,3.6208 -39.6075,10.6695 -57.4808,15.2101 -43.0413,10.9347 -77.323,18.8847 -123.82502,28.7154 -51.7414,10.9383 -119.5364,23.1416 -168.4073,30.3136 -1.8917,0.2777 -6.2375,0.9189 -9.6573,1.4249 -51.7601,7.6594 -106.7812,14.2562 -160.0729,19.192 -50.3376,4.6622 -100.272,8.0167 -151.6062,10.1847 -8.7362,0.3689 -11.4656,0.4744 -20.9021,0.808 -1.9645,0.069 -5.2388,0.1882 -7.2761,0.2641 -32.0721,1.1936 -89.1698,1.8416 -127.8833,1.4512 z m 66.1876,-15.0748 c 74.4103,-0.7597 127.1494,-2.2265 157.6072,-4.3835 16.1298,-1.1423 31.004,-2.2891 42.8625,-3.3046 10.6604,-0.9129 24.0367,-2.1019 28.1782,-2.5047 2.1828,-0.2123 7.7192,-0.7463 12.3031,-1.1866 51.2464,-4.9227 105.2836,-11.5764 160.0729,-19.71 34.6703,-5.147 83.6664,-13.4169 116.1521,-19.605 3.4197,-0.6514 8.1227,-1.5466 10.451,-1.9892 13.1655,-2.5029 40.3542,-7.9677 53.1813,-10.6893 22.33752,-4.7393 33.25862,-7.1318 51.19692,-11.2156 30.4213,-6.9257 69.9375,-16.5918 94.7208,-23.1699 30.5186,-8.1003 36.1403,-9.6392 61.9125,-16.9481 10.3434,-2.9334 14.7586,-4.2099 26.0614,-7.5345 16.5839,-4.878 40.5374,-12.2118 56.7532,-17.3759 6.1846,-1.9696 12.8521,-4.0924 14.8166,-4.7173 12.5387,-3.9885 39.2284,-12.8783 52.3875,-17.4492 1.819,-0.6318 5.0933,-1.7657 7.2761,-2.5196 2.1828,-0.754 7.9573,-2.7797 12.8323,-4.5017 4.8749,-1.722 10.0541,-3.5507 11.5093,-4.0638 5.795,-2.0433 10.8162,-3.865 28.1782,-10.2227 4.3976,-1.6103 16.4597,-6.1269 31.0885,-11.641 21.9276,-8.2652 44.981,-16.9347 57.15,-21.4918 6.2574,-2.3433 11.4522,-4.3308 11.5441,-4.4167 0.092,-0.086 0.3042,-21.1708 0.4725,-46.8552 0.168,-25.6845 0.5374,-77.179 0.8205,-114.4323 0.2833,-37.2534 0.6376,-86.18808 0.7874,-108.74378 0.1495,-22.5557 0.3855,-55.1788 0.5238,-72.4958 0.5501,-68.77602 0.6075,-81.62397 0.3654,-81.62397 -0.1346,0 -2.0264,0.66074 -4.2042,1.4683 -5.5438,2.05587 -8.6955,3.21678 -14.9397,5.50312 -2.9832,1.09228 -9.7102,3.55802 -14.9489,5.47937 -18.0626,6.62458 -21.4654,7.87236 -31.3532,11.49683 -5.457,2.0003 -12.6603,4.6436 -16.0073,5.87396 -34.5821,12.71247 -78.8364,28.02478 -111.2573,38.49589 -16.14,5.2127 -34.8477,11.101 -48.1541,15.1564 -4.1474,1.264 -9.0289,2.7529 -10.8479,3.3086 -1.8191,0.5558 -5.9862,1.8028 -9.2605,2.771 -3.2742,0.9684 -7.3223,2.1663 -8.9958,2.6623 -12.4476,3.6885 -35.2864,10.2266 -47.0958,13.4822 -12.4328,3.4274 -15.9735,4.3952 -20.3729,5.5682 -2.5467,0.679 -5.4042,1.4541 -6.35,1.7224 -2.5447,0.7218 -22.5777,5.9575 -33.2053,8.6783 -29.0157,7.4284 -67.6835,16.6614 -93.7947,22.3962 -2.4011,0.5274 -7.3422,1.6147 -10.9803,2.4163 -3.638,0.8016 -9.4125,2.0498 -12.8322,2.7738 -3.4198,0.7239 -8.06322,1.7147 -10.31882,2.2017 -2.2556,0.4871 -5.7084,1.2059 -7.6729,1.5974 -1.9645,0.3916 -5.0006,1.0021 -6.7469,1.3567 -1.7462,0.3546 -6.5087,1.3067 -10.5833,2.1157 -4.0746,0.8091 -8.1227,1.6353 -8.9959,1.836 -1.8923,0.4351 -21.6848,4.2626 -32.676,6.3189 -29.4267,5.5054 -60.11,10.7795 -88.6354,15.2355 -4.7294,0.7388 -8.9562,1.4532 -9.3927,1.5876 -0.4366,0.1345 -2.1035,0.4239 -3.7042,0.6433 -1.6007,0.2193 -7.8515,1.1194 -13.8906,2.0001 -14.6855,2.1417 -18.4299,2.6705 -19.8438,2.8024 -0.6548,0.061 -3.3302,0.4152 -5.9453,0.7868 -2.6151,0.3717 -5.5917,0.7832 -6.6146,0.9145 -1.0229,0.1313 -5.4317,0.7178 -9.7974,1.3033 -27.3222,3.6649 -56.7458,7.1853 -84.1375,10.0668 -69.5534,7.3166 -140.0228,12.3568 -207.0364,14.8079 -7.9309,0.29008 -16.1462,0.59398 -18.2563,0.67548 -2.11,0.082 -8.4203,0.2617 -14.0229,0.4004 -5.6025,0.1388 -15.961,0.4012 -23.0187,0.5833 -17.4703,0.4506 -104.6301,0.4562 -122.6344,0.01 -65.9008,-1.64098 -110.7216,-3.76318 -166.4229,-7.87958 -60.14,-4.4445 -123.519,-11.0283 -180.975,-18.7999 -3.7836,-0.5117 -7.7126,-1.0398 -8.7313,-1.1733 -7.1835,-0.9421 -34.0163,-4.817 -43.9208,-6.3426 -2.9104,-0.4483 -7.2432,-1.1098 -9.6283,-1.47 -7.4753,-1.1289 -33.3149,-5.3316 -43.9498,-7.1482 -5.6026,-0.957 -10.6032,-1.8025 -11.1125,-1.8789 -0.5094,-0.076 -1.4023,-0.3019 -1.9844,-0.5013 -0.5821,-0.1993 -3.1419,-0.724 -5.6886,-1.1659 -2.5466,-0.4419 -7.0114,-1.223 -9.9218,-1.7359 -2.9105,-0.5128 -8.0301,-1.4132 -11.3771,-2.0009 -3.347,-0.5876 -7.3166,-1.2996 -8.8215,-1.5823 -1.5048,-0.2826 -3.2907,-0.5785 -3.9687,-0.6574 -1.6086,-0.1871 -22.8212,-4.2698 -36.9515,-7.1118 -24.6054,-4.9488 -51.3151,-10.6428 -72.0989,-15.37 -3.5653,-0.8109 -8.0301,-1.826 -9.9219,-2.2557 -1.8918,-0.4298 -5.1065,-1.1881 -7.1438,-1.685 -13.429,-3.2758 -32.172,-7.7989 -37.4385,-9.0347 -11.9644,-2.8075 -36.4241,-8.9761 -51.3292,-12.945 -29.3845,-7.8245 -50.0998,-13.5698 -72.6203,-20.1411 -25.5539,-7.4564 -55.3274,-16.5157 -72.5036,-22.061 -1.7463,-0.5637 -6.9255,-2.2315 -11.5094,-3.706 -28.3685,-9.12573 -65.5195,-21.76374 -90.7521,-30.87202 -1.819,-0.65662 -5.5695,-2.00409 -8.3344,-2.99434 -6.2818,-2.24989 -19.4,-7.05372 -26.7229,-9.78578 -3.0559,-1.14011 -8.1161,-3.02442 -11.2448,-4.18735 -3.1287,-1.16292 -8.3079,-3.08925 -11.5094,-4.28074 -3.2014,-1.1915 -7.4281,-2.76191 -9.3927,-3.48981 -1.9645,-0.72789 -7.5009,-2.7868 -12.3031,-4.57533 -20.2988,-7.56015 -25.3396,-9.41409 -25.4009,-9.34217 -0.036,0.0418 -0.2047,20.73341 -0.3757,45.98128 -0.171,25.24786 -0.5425,75.19456 -0.8257,110.99266 -1.2186,154.06768 -0.2412,258.77358 2.4683,264.42698 0.3787,0.79 1.9393,1.6179 7.7298,4.1005 8.6943,3.7276 34.698,13.8986 55.6948,21.7843 47.197,17.7259 85.0154,31.1822 124.7511,44.3885 16.0773,5.3433 21.9233,7.2433 41.8041,13.5866 19.2775,6.1508 44.926,13.9452 70.2469,21.3475 39.4311,11.5272 95.5796,26.446 134.4084,35.7126 13.0929,3.1247 22.0759,5.2394 28.7072,6.758 3.7836,0.8665 7.1769,1.6448 7.5407,1.7295 25.4527,5.9293 68.0333,14.8946 100.2771,21.1131 86.6609,16.7135 179.1694,30.3945 266.7,39.4419 15.2151,1.5727 20.7949,2.1215 37.5708,3.6957 26.5859,2.4946 60.6404,5.1917 88.6354,7.0199 18.8261,1.2293 48.6884,2.0305 92.2073,2.4737 18.9668,0.1932 91.6586,0.1408 113.4584,-0.082 z m -641.4344,-112.0769 c -0.5094,-0.058 -2.2358,-0.2299 -3.8365,-0.3818 -14.3557,-1.3629 -27.7472,-6.342 -39.026,-14.5102 -16.4013,-11.8779 -29.2232,-30.8968 -36.2431,-53.7599 -4.9689,-16.1834 -7.4308,-33.3906 -7.8527,-54.8848 -0.3861,-19.6733 1.3982,-39.3201 5.0701,-55.8271 9.215,-41.4257 31.3082,-70.232 62.1017,-80.9716 19.8441,-6.9208 44.3358,-6.3857 68.6688,1.5003 2.7333,0.8859 3.2985,1.1625 3.6042,1.7641 0.3228,0.6354 -0.049,3.9067 -3.4031,29.8996 -2.0711,16.0524 -3.8715,29.2797 -4.0011,29.394 -0.25,0.2207 -4.3566,1.1515 -4.4903,1.0178 -0.043,-0.043 -1.9338,-10.6131 -4.201,-23.4884 -2.2673,-12.8753 -4.2217,-23.5873 -4.3432,-23.8047 -0.4999,-0.8939 -11.5412,-4.1641 -17.3635,-5.1427 -31.0209,-5.214 -54.075,11.6781 -66.4171,48.6649 -5.1894,15.5513 -7.9524,32.5984 -8.8556,54.6365 -1.0469,25.5422 1.2991,50.2717 6.6046,69.6208 5.5934,20.3994 14.8316,37.0259 26.5455,47.7758 14.382,13.1983 34.1632,17.1443 53.8614,10.7444 l 3.0074,-0.9771 -0.1307,-39.9679 c -0.1419,-43.405 -0.077,-41.6326 -1.5894,-43.615 -0.5621,-0.7369 -2.031,-1.5282 -8.1785,-4.4059 -4.1214,-1.9292 -7.7613,-3.6775 -8.0887,-3.885 -0.5711,-0.362 -0.5953,-0.5283 -0.5953,-4.0833 v -3.706 l 7.2099,0.2063 c 9.2774,0.2656 35.9917,0.2664 44.4328,0 l 6.5312,-0.205 0.1632,1.1311 c 0.09,0.6221 0.1867,2.3644 0.2156,3.8717 l 0.053,2.7406 -6.9994,3.0803 c -6.465,2.845 -7.0642,3.1652 -7.8477,4.1942 -0.4666,0.6127 -0.9888,1.6843 -1.1605,2.3812 -0.2309,0.9375 -0.3464,12.9719 -0.4435,46.2465 -0.1106,37.853 -0.1899,45.0708 -0.5004,45.5577 -0.2698,0.4231 -1.4545,0.9342 -4.4087,1.902 -10.6105,3.476 -20.1651,5.6521 -29.8424,6.7967 -3.3405,0.3951 -16.0792,0.7362 -18.2505,0.4886 z m 554.0375,-0.1319 c -17.5985,-1.7662 -31.7192,-8.2357 -43.4446,-19.9044 -17.9656,-17.8787 -29.6004,-47.0617 -33.1416,-83.1275 -0.858,-8.7381 -0.9842,-11.4318 -1.1232,-23.9614 -0.1788,-16.1192 0.2413,-24.9593 1.7845,-37.5542 4.2126,-34.3827 16.0774,-62.4267 33.9767,-80.3093 7.0676,-7.0609 13.8772,-11.7792 22.5013,-15.5907 9.9086,-4.3793 19.9075,-6.3314 32.4114,-6.3279 8.7085,0 13.4831,0.5534 20.7698,2.3968 13.9963,3.5407 26.2671,11.2605 35.8511,22.5548 14.3303,16.8875 23.6871,40.9603 27.3627,70.3971 3.161,25.3159 2.3445,56.0682 -2.1177,79.7618 -3.0465,16.1765 -7.5414,29.9953 -13.9023,42.7403 -6.2119,12.4467 -11.8867,20.458 -20.2474,28.5842 -11.6074,11.2819 -24.8843,17.6509 -41.6307,19.9707 -3.6646,0.5076 -15.4055,0.7355 -19.05,0.3697 z m 18.1239,-14.5327 c 12.1253,-1.3452 21.3532,-5.738 29.2417,-13.92 13.3997,-13.8984 21.1556,-38.2055 23.7966,-74.5792 0.9508,-13.0958 1.2464,-37.6558 0.5858,-48.6834 -1.3974,-23.3294 -4.1534,-39.866 -9.1718,-55.0333 -9.6398,-29.1346 -25.5368,-43.638 -49.7873,-45.4226 -14.686,-1.0808 -27.9365,3.0906 -37.5897,11.8334 -17.578,15.9204 -26.5222,50.7578 -26.5232,103.3069 0,47.3492 7.7503,81.77 23.0432,102.3275 2.5354,3.4081 8.7115,9.5282 11.8766,11.7689 3.1411,2.2236 8.5296,4.9425 12.1708,6.141 2.9806,0.981 7.1133,1.8772 10.3188,2.2376 2.8439,0.3197 9.2544,0.3321 12.0385,0.023 z m 239.3228,12.5673 c -10.3692,-1.1835 -19.1995,-3.5346 -32.916,-8.7638 -2.3428,-0.8932 -2.424,1.9153 0.9509,-32.8974 l 2.9876,-30.8177 2.6067,-0.618 c 1.4337,-0.3398 2.6429,-0.5808 2.6872,-0.5354 0.044,0.045 1.9946,11.6316 4.3339,25.7471 3.4777,20.9848 4.3384,25.7278 4.7203,26.0112 1.173,0.8708 7.6537,3.814 10.5212,4.7784 7.598,2.5552 15.6841,3.2584 23.2912,2.0256 11.7539,-1.9048 20.7172,-8.6551 25.9264,-19.5253 3.5131,-7.3309 4.978,-14.9085 4.9989,-25.8576 0.02,-10.6482 -1.4655,-17.7615 -5.3879,-25.797 -2.6895,-5.5097 -5.6327,-9.4429 -10.8985,-14.5643 -4.91,-4.7755 -10.4248,-8.9283 -23.6147,-17.7827 -15.9945,-10.7373 -22.7806,-16.4641 -29.6108,-24.9889 -5.3013,-6.6166 -9.4766,-14.8937 -12.0809,-23.9496 -4.4598,-15.5075 -4.4196,-38.2862 0.094,-53.5551 3.9377,-13.3196 10.712,-23.4458 20.6359,-30.8467 5.9715,-4.4533 12.0559,-7.3203 19.59,-9.2308 12.5343,-3.1785 30.1592,-2.3558 48.3125,2.2551 6.5811,1.6715 8.7872,2.4457 9.2331,3.2401 0.3468,0.6179 0.053,3.2981 -3.1199,28.4317 -1.9266,15.2623 -3.5932,27.9784 -3.7038,28.258 -0.1446,0.366 -0.826,0.6742 -2.4323,1.1001 -1.2273,0.3255 -2.2463,0.5729 -2.2644,0.5499 -0.018,-0.023 -1.7802,-10.043 -3.9157,-22.2668 -2.1355,-12.2237 -3.9359,-22.4066 -4.0009,-22.6285 -0.2787,-0.952 -10.2494,-4.7259 -15.3767,-5.8201 -3.3009,-0.7044 -10.1142,-0.984 -13.3768,-0.5488 -14.3529,1.9145 -24.6785,11.9011 -28.518,27.5819 -1.3111,5.355 -1.684,8.8581 -1.6998,15.9676 -0.024,10.7738 1.426,17.74 5.3962,25.9292 2.7934,5.7619 5.9138,10.022 11.2459,15.3534 4.8271,4.8265 9.9406,8.6897 23.767,17.9559 12.7986,8.5773 18.5299,12.95 23.6152,18.0173 8.5766,8.5461 13.7372,16.9172 17.3005,28.0631 2.8053,8.7748 3.9083,18.8904 3.431,31.466 -0.7738,20.3908 -5.7654,36.0262 -15.2482,47.7621 -1.9015,2.3533 -6.7019,7.0641 -8.9367,8.7698 -7.7995,5.9528 -16.943,9.6836 -27.816,11.3496 -4.8317,0.7403 -15.8131,0.9424 -20.7279,0.3814 z m 412.75,0 c -10.3692,-1.1835 -19.1995,-3.5346 -32.916,-8.7638 -2.3428,-0.8932 -2.424,1.9153 0.9509,-32.8974 l 2.9876,-30.8177 2.6067,-0.618 c 1.4337,-0.3398 2.6429,-0.5808 2.6873,-0.5354 0.044,0.045 1.9945,11.6316 4.3338,25.7471 3.4777,20.9848 4.3384,25.7278 4.7203,26.0112 1.173,0.8708 7.6537,3.814 10.5212,4.7784 7.598,2.5552 15.6841,3.2584 23.29122,2.0256 11.7539,-1.9048 20.7172,-8.6551 25.9264,-19.5253 3.5131,-7.3309 4.978,-14.9085 4.9989,-25.8576 0.02,-10.6482 -1.4655,-17.7615 -5.3879,-25.797 -2.6895,-5.5097 -5.6327,-9.4429 -10.8985,-14.5643 -4.91,-4.7755 -10.4248,-8.9283 -23.61472,-17.7827 -15.9945,-10.7373 -22.7805,-16.4641 -29.6108,-24.9889 -5.3013,-6.6166 -9.4765,-14.8937 -12.0809,-23.9496 -4.4598,-15.5075 -4.4196,-38.2862 0.094,-53.5551 3.9377,-13.3196 10.712,-23.4458 20.6359,-30.8467 5.9715,-4.4533 12.0559,-7.3203 19.59,-9.2308 12.53432,-3.1785 30.15922,-2.3558 48.31252,2.2551 6.5811,1.6715 8.7872,2.4457 9.2331,3.2401 0.3468,0.6179 0.053,3.2981 -3.1199,28.4317 -1.9266,15.2623 -3.5932,27.9784 -3.7037,28.258 -0.1446,0.366 -0.8261,0.6742 -2.4324,1.1001 -1.2273,0.3255 -2.2462,0.5729 -2.2644,0.5499 -0.018,-0.023 -1.7802,-10.043 -3.9157,-22.2668 -2.1355,-12.2237 -3.9359,-22.4066 -4.0009,-22.6285 -0.2787,-0.952 -10.2494,-4.7259 -15.3767,-5.8201 -3.3008,-0.7044 -10.1142,-0.984 -13.3768,-0.5488 -14.35292,1.9145 -24.67852,11.9011 -28.51802,27.5819 -1.3111,5.355 -1.684,8.8581 -1.6998,15.9676 -0.024,10.7738 1.426,17.74 5.3962,25.9292 2.7934,5.7619 5.9138,10.022 11.2459,15.3534 4.8271,4.8265 9.9406,8.6897 23.76702,17.9559 12.7986,8.5773 18.5299,12.95 23.6152,18.0173 8.5766,8.5461 13.7372,16.9172 17.3005,28.0631 2.8053,8.7748 3.9083,18.8904 3.431,31.466 -0.7738,20.3908 -5.7654,36.0262 -15.2481,47.7621 -1.9016,2.3533 -6.702,7.0641 -8.9368,8.7698 -7.7995,5.9528 -16.943,9.6836 -27.816,11.3496 -4.83172,0.7403 -15.81312,0.9424 -20.72792,0.3814 z m -896.8884,-3.8982 c -0.2838,-0.473 -24.899,-46.2228 -54.7003,-101.6662 -29.8014,-55.4435 -54.3505,-100.9849 -54.5537,-101.2032 -0.3162,-0.3397 -0.3546,12.8283 -0.267,91.4136 0.091,81.4145 0.1483,91.982 0.5078,93.3255 0.7537,2.817 0.8697,2.8981 9.5831,6.7017 l 7.828,3.4171 v 4.0519 4.052 l -1.6536,-0.2105 c -2.1426,-0.2728 -43.6187,-0.2774 -46.2801,-0.01 l -2.0285,0.2074 -0.1477,-1.6626 c -0.081,-0.9145 -0.2135,-2.6748 -0.2939,-3.9117 l -0.1462,-2.2489 7.7375,-3.4319 c 4.5868,-2.0343 8.1093,-3.7582 8.6504,-4.2333 0.5021,-0.4408 1.1609,-1.3373 1.4641,-1.9921 l 0.5511,-1.1907 0.073,-105.701 c 0.041,-59.2664 -0.029,-107.213 -0.1604,-109.1428 -0.2481,-3.6549 -0.659,-4.953 -1.9377,-6.1219 -0.3415,-0.3122 -4.0738,-2.1791 -8.2939,-4.1485 l -7.6729,-3.5808 -0.2235,-3.7419 c -0.1229,-2.0581 -0.1636,-3.8018 -0.09,-3.8749 0.073,-0.073 3.3582,0 7.3003,0.1701 9.8703,0.4173 22.2736,0.4311 25.6593,0.029 1.5112,-0.1796 2.8378,-0.2295 2.9478,-0.1109 0.1101,0.1185 23.1517,42.8995 51.2036,95.0687 28.0519,52.1692 51.1053,94.9682 51.2299,95.1088 0.1257,0.1419 0.1936,-38.0257 0.1525,-85.725 -0.061,-71.0421 -0.1357,-86.1645 -0.4289,-87.039 -0.7109,-2.1207 -1.9387,-2.9038 -9.7077,-6.1917 -3.9205,-1.6593 -7.2087,-3.088 -7.3071,-3.175 -0.098,-0.087 -0.2646,-1.9917 -0.3695,-4.2326 l -0.1908,-4.0743 3.4123,0.1772 c 13.3095,0.6913 30.4771,0.6938 43.5312,0.01 l 3.3419,-0.176 0.1947,3.7618 c 0.1073,2.0725 0.092,3.8616 -0.035,3.9841 -0.1261,0.1222 -3.3845,1.6677 -7.2408,3.4343 -9.055,4.1482 -9.045,4.1422 -9.9683,6.0224 l -0.7473,1.5217 -0.1725,8.3344 c -0.095,4.5839 -0.1842,57.656 -0.1985,117.938 -0.014,60.2821 -0.1152,109.6038 -0.2243,109.6039 -0.1091,10e-5 -2.3309,0.2978 -4.9372,0.6615 -2.6064,0.3637 -4.7696,0.6613 -4.8071,0.6613 -0.037,0 -0.3005,-0.387 -0.5843,-0.8599 z m 677.9435,-3.7615 c -0.1066,-2.1323 -0.1514,-3.9139 -0.099,-3.9592 0.052,-0.045 3.6067,-1.6484 7.8996,-3.5626 8.7068,-3.8824 9.1633,-4.1947 9.9755,-6.8232 0.4543,-1.4702 0.4755,-6.3274 0.4755,-108.9597 0,-86.984 -0.065,-107.704 -0.3426,-108.9092 -0.1884,-0.8186 -0.6771,-2.0157 -1.0858,-2.6603 -0.7169,-1.1303 -1.0099,-1.2967 -8.2564,-4.6889 -4.1322,-1.9343 -7.781,-3.6867 -8.1084,-3.8942 -0.5714,-0.3622 -0.5953,-0.5272 -0.5953,-4.1141 v -3.7367 l 3.2411,0.176 c 12.8107,0.6956 40.8487,0.6954 53.8167,0 l 3.2151,-0.1725 0.1631,2.0877 c 0.09,1.1483 0.2262,2.8748 0.3031,3.8368 l 0.1399,1.7491 -7.6192,3.377 c -4.1905,1.8574 -7.9809,3.5945 -8.423,3.8603 -1.3263,0.7973 -1.9796,2.2992 -2.2662,5.2096 -0.1585,1.6098 -0.2258,42.612 -0.1793,109.3352 l 0.074,106.7594 0.7341,1.4949 c 0.4038,0.8222 1.1182,1.7865 1.5875,2.1429 0.4694,0.3563 4.1992,2.1839 8.2886,4.0613 l 7.4353,3.4134 0.1743,3.8116 c 0.096,2.0963 0.1433,3.8361 0.1054,3.8662 -0.038,0.03 -3.5813,-0.058 -7.8742,-0.1954 -7.7073,-0.2468 -49.3759,-0.066 -51.4944,0.223 l -1.0912,0.149 -0.1938,-3.8769 z M 417.03998,984.79882 c 18.9149,-0.2053 50.8891,-0.6739 61.6479,-0.9034 16.1215,-0.344 20.0105,-0.4343 34.3959,-0.7991 71.1299,-1.8038 121.4431,-4.4417 153.8552,-8.0665 15.205,-1.7005 31.7888,-3.6834 45.5083,-5.4414 4.0018,-0.5128 8.7048,-1.1095 10.451,-1.326 16.2701,-2.0175 47.5534,-6.394 73.8188,-10.3272 21.5782,-3.2313 22.4504,-3.3837 23.4734,-4.1011 0.4775,-0.3349 4.202,-3.106 8.2766,-6.1581 46.299,-34.68 92.1631,-73.3621 139.3031,-117.48911 22.3822,-20.95156 43.65622,-41.88555 73.82172,-72.64183 7.9213,-8.07641 17.5045,-17.83953 21.2961,-21.69583 11.2892,-11.48192 36.2097,-36.86705 40.5473,-41.30324 l 4.0349,-4.1266 v -496.4975 c 0,-396.88276 -0.066,-496.54972 -0.3307,-496.75784 -0.1819,-0.1432 -8.427,-2.96093 -18.3224,-6.26163 -9.8954,-3.30068 -19.6266,-6.6403 -21.6249,-7.42135 -34.4756,-13.47534 -73.86782,-38.85002 -107.61232,-69.31907 -9.8362,-8.88148 -21.3388,-20.43912 -27.3993,-27.53053 -18.252,-21.35658 -39.9001,-55.08478 -55.9558,-87.18021 -8.9542,-17.8995 -14.3574,-31.11718 -17.8752,-43.72726 -0.8556,-3.06696 -1.5954,-4.30198 -3.2532,-5.43093 -4.8903,-3.33035 -21.1029,-5.15326 -54.5429,-6.13267 -46.1928,-1.35294 -78.482,-1.56855 -277.5479,-1.85332 -236.9837,-0.33901 -521.206,0.10234 -590.0208,0.91621 -42.971,0.50822 -78.7953,1.22189 -92.7365,1.84744 -1.6007,0.0718 -4.6963,0.19924 -6.8791,0.28314 -14.7094,0.56539 -29.7198,1.90361 -34.478,3.0738 -1.6115,0.39632 -3.8068,1.35956 -4.1808,1.83445 -0.1618,0.20543 -0.3717,0.96721 -0.4665,1.69283 -1.0356,7.9268 -21.6368,53.40417 -35.2993,77.92339 -20.3797,36.57416 -46.162,68.09866 -76.5255,93.56903 -18.1341,15.21185 -38.4879,28.84109 -61.3992,41.11403 -3.7541,2.01094 -23.5792,11.83616 -27.9361,13.84501 -1.7703,0.81621 -4.6103,2.14037 -6.311,2.94256 -1.7008,0.80219 -3.1291,1.45855 -3.1739,1.45855 -0.045,0 -0.9553,0.4073 -2.0234,0.90514 -4.3681,2.03612 -16.8036,7.34353 -20.5949,8.78983 -4.7877,1.82641 -8.7727,3.06834 -11.7867,3.67329 -1.2578,0.25246 -2.429,3.79219 -3.2806,9.91507 -1.1621,8.35597 -1.8435,19.39473 -2.7845,45.11146 -0.3541,9.67936 -0.8719,36.53904 -1.3288,68.92396 -0.8481,60.12659 -1.183,219.754144 -1.188,566.30408 v 299.47176 l 5.6163,5.85742 c 3.089,3.22157 7.1157,7.40521 8.9484,9.29699 1.8327,1.89177 6.058,6.29708 9.3895,9.78958 3.3316,3.4925 7.4936,7.83828 9.249,9.65729 5.2067,5.39554 7.7015,7.99579 28.3073,29.5044 25.2655,26.37235 52.6481,53.56829 77.6621,77.13269 40.8027,38.43822 87.2391,78.02562 127.1306,108.37962 l 2.1166,1.6107 6.2178,1.1171 c 15.7012,2.8211 21.0863,3.7813 25.2677,4.5054 2.4738,0.4284 5.8671,1.0199 7.5406,1.3144 15.907,2.7994 53.3143,8.8734 70.9083,11.5138 1.528,0.2293 5.1594,0.7743 8.0698,1.211 19.0539,2.859 46.2404,6.6906 63.7646,8.9867 2.3283,0.3051 6.9122,0.9056 10.18649997,1.3344 10.27950003,1.3463 35.15500003,4.4138 45.90520003,5.6608 5.6753,0.6584 11.2712,1.3148 12.4354,1.4587 2.9477,0.3644 22.0127,2.4657 31.0885,3.4265 18.0887,1.9148 36.7202,3.1175 69.85,4.5089 10.6852,0.4487 38.7329,1.2879 57.4146,1.7178 11.4958,0.2645 39.4191,0.7145 56.4885,0.9104 21.9961,0.2524 119.6794,0.2538 142.875,0 z m -60.8302,-36.4377 c -1.2965,-2.4294 -4.6169,-8.6438 -7.3786,-13.8098 -2.7618,-5.166 -7.215,-13.5004 -9.896,-18.5208 -2.6811,-5.0205 -4.9566,-9.2066 -5.0568,-9.3025 -0.1002,-0.096 -2.9356,4.369 -6.301,9.9219 -3.3653,5.5529 -6.2483,10.0962 -6.4065,10.0962 -0.1583,0 -1.1553,-0.7246 -2.2156,-1.6102 -1.0603,-0.8856 -11.6909,-9.6887 -23.6236,-19.5625 -20.7561,-17.1748 -23.6095,-19.5373 -33.8667,-28.0396 -12.2378,-10.144 -15.6963,-13.0088 -19.8156,-16.4138 -2.4584,-2.0321 -5.4945,-4.5485 -6.7469,-5.592 -1.4442,-1.2034 -2.3074,-1.7648 -2.36,-1.5349 -0.081,0.3537 1.9452,14.7096 2.255,15.9772 0.1181,0.4833 0.064,0.6035 -0.2219,0.4938 -0.2079,-0.08 -6.4467,-1.8977 -13.8641,-4.0398 -7.4173,-2.1421 -16.3436,-4.72 -19.8361,-5.7286 -3.4925,-1.0087 -9.6837,-2.7944 -13.7583,-3.9684 -4.0746,-1.1739 -8.9562,-2.5876 -10.8479,-3.1416 -1.8918,-0.554 -6.8329,-1.9832 -10.9802,-3.176 -4.1474,-1.1928 -11.117,-3.2052 -15.4882,-4.47198 l -7.9475,-2.30325 -7.3983,-5.03097 c -14.0806,-9.57503 -19.6549,-13.3251 -19.8071,-13.3251 -0.084,0 -0.1839,4.64407 -0.222,10.32017 l -0.069,10.32018 -4.6579,-3.90403 c -7.0026,-5.86938 -26.7068,-22.44114 -34.5249,-29.03643 -3.797,-3.20313 -10.8698,-9.1576 -15.7173,-13.23219 -4.8476,-4.07458 -11.9927,-10.08724 -15.8782,-13.36146 -3.8855,-3.27422 -9.9676,-8.3939 -13.5159,-11.37708 -13.249,-11.13896 -25.0617,-21.07864 -27.6246,-23.24439 -1.45520003,-1.22973 -3.7967,-3.19622 -5.2034,-4.36999 l -2.5576,-2.1341 -7.2162,-15.35441 c -3.9688,-8.44492 -8.1216,-17.2594 -9.2283,-19.58774 -1.1066,-2.32833 -3.9117,-8.30574 -6.2335,-13.28314 -2.3218,-4.97739 -4.3251,-9.0207 -4.4519,-8.98514 -0.2029,0.0569 -7.3404,11.2037 -15.3233,23.93084 -1.4864,2.36964 -2.9483,4.61833 -3.2487,4.99711 l -0.5464,0.68869 -3.4634,-10.15646 c -3.2632,-9.56945 -4.8054,-14.078 -13.8366,-40.45127 -2.0182,-5.8936 -5.1544,-15.06141 -6.9693,-20.37292 -1.8148,-5.31151 -6.2942,-18.40839 -9.9541,-29.10417 -3.6599,-10.69578 -7.4893,-21.88766 -8.5096,-24.87083 -1.0204,-2.98318 -4.0637,-11.85334 -6.7629,-19.71146 -2.6993,-7.85813 -5.7734,-16.84735 -6.8315,-19.97605 -1.058,-3.12869 -3.3533,-9.85573 -5.1007,-14.94895 -1.7474,-5.09323 -4.7381,-13.84433 -6.6461,-19.44688 -1.908,-5.60255 -3.6162,-10.48412 -3.7959,-10.84792 -0.2555,-0.5172 -0.3557,-14.76425 -0.4591,-65.32589 l -0.1323,-64.66443 -9.2604,-5.80517 c -5.0932,-3.19284 -16.4042,-10.27819 -25.1354,-15.74523 -8.7313,-5.46703 -19.4682,-12.19025 -23.8599,-14.94047 l -7.9849,-5.00038 2.5609,-3.6843 c 1.4085,-2.02636 4.1683,-6.00948 6.1328,-8.85137 1.9646,-2.84189 5.1792,-7.48554 7.1438,-10.31923 1.9645,-2.83368 5.1792,-7.47916 7.1437,-10.32327 1.9646,-2.84411 4.2267,-6.11505 5.0271,-7.26871 3.2307,-4.65683 6.6109,-9.5548 8.9165,-12.92006 l 2.4341,-3.55298 -8.1227,-5.60639 c -4.4675,-3.08354 -13.0042,-8.97417 -18.9706,-13.09034 -5.9664,-4.11618 -11.0107,-7.63911 -11.2098,-7.82873 -0.3494,-0.33295 5.9558,-9.60636 34.3608,-50.53682 1.9646,-2.83081 5.872,-8.47606 8.6831,-12.54498 2.8112,-4.06895 7.8118,-11.30689 11.1125,-16.08432 3.3007,-4.77742 6.2054,-9.00041 6.4549,-9.38442 l 0.4537,-0.69816 -13.9474,-9.73119 c -7.6711,-5.35215 -16.3286,-11.38912 -19.239,-13.41548 -2.9105,-2.02637 -5.3299,-3.7187 -5.3765,-3.76074 -0.047,-0.042 0.4811,-0.89156 1.1727,-1.88785 0.6916,-0.99627 2.1675,-3.12108 3.2798,-4.72181 1.1123,-1.60073 2.8003,-4.04151 3.7511,-5.42396 0.9508,-1.38245 2.3111,-3.35502 3.0227,-4.38348 0.7116,-1.02847 4.1514,-6.00361 7.6439,-11.05594 3.4925,-5.05229 8.0216,-11.592686 10.0647,-14.534216 2.043,-2.94153 6.0994,-8.80105 9.0141,-13.02115 2.9147,-4.22011 10.9329,-15.81539 17.8182,-25.7673 6.8854,-9.9519 12.5326,-18.273 12.5494,-18.49136 0.026,-0.33917 -11.8199,-7.46572 -31.7739,-19.11498 l -2.7004,-1.57652 2.1796,-3.11137 c 1.1988,-1.71127 3.307,-4.7516 4.6848,-6.75632 1.3779,-2.00469 3.6834,-5.33844 5.1235,-7.40832995 1.4402,-2.06986005 4.4418,-6.40718005 6.6705,-9.63843005 2.2286,-3.23128 4.4511,-6.44596 4.939,-7.14375 0.4878,-0.69781 7.1849,-10.37701 14.8824,-21.50936 7.6974,-11.13234 14.7146,-21.277524 15.5936,-22.544884 0.879,-1.26733 7.2537,-10.48559 14.166,-20.48502 13.8923,-20.09706 36.6509,-53.00009 42.0677,-60.81906 5.2099,-7.52028 11.2327,-16.22798 15.7384,-22.75417 2.2103,-3.20145 6.30849997,-9.13677 9.1071,-13.18963 2.7986,-4.05284 5.022,-7.43517 4.9409,-7.51631 -0.081,-0.0811 -2.5,0.40171 -5.3753,1.07296 -2.8753,0.67128 -7.8472,1.82787 -11.0486,2.57024 -3.2015,0.74237 -6.7431,1.5643 -7.8702,1.82647 -1.4781,0.34383 -2.1125,0.395 -2.276,0.18357 -0.2929,-0.37883 -5.5965,-10.63244 -5.5965,-10.81997 0,-0.0782 2.0538,-1.97859 4.564,-4.22313 5.2203,-4.66777 37.3547,-33.48265 41.3412,-37.07056 1.4552,-1.30971 3.6578,-3.29268 4.8948,-4.40655 2.6007,-2.34207 7.8797,-7.07679 16.6638,-14.94584 7.789,-6.97764 23.8831,-21.42247 27.4006,-24.5927 1.4614,-1.31713 5.9797,-5.37136 10.0406,-9.00938 12.8609,-11.52163 16.6693,-14.97264 16.7318,-15.16179 0.033,-0.10123 -5.0267,-2.68164 -11.2448,-5.73427 -6.2181,-3.0526 -18.9851,-9.34688 -28.3712,-13.98727 -9.3861,-4.6404 -18.7325,-9.24338 -20.7698,-10.22885 -2.0373,-0.98547 -9.8954,-4.8559 -17.4625,-8.60091 -7.5671,-3.74502 -17.0921,-8.44638 -21.1667,-10.44745 -9.2505,-4.54305 -22.2179,-10.93531 -37.3062,-18.3901 -6.4029,-3.16355 -13.9039,-6.85406 -16.6688,-8.20119 -2.7649,-1.34712 -11.5755,-5.69259 -19.5791,-9.65663 -8.0037,-3.96402 -16.5762,-8.19101 -19.05,-9.3933 -2.4739,-1.20229 -10.6892,-5.24366 -18.2563,-8.98083 -7.5671,-3.73716 -18.2319,-9.00129 -23.6995,-11.69807 l -9.9412,-4.90322 46.5246,-23.26038 46.5246,-23.26037 76.526,0.0679 76.5259,0.0679 8.599,2.72361 c 4.7294,1.49799 9.9086,3.12528 11.5094,3.61621 1.6007,0.49092 6.1846,1.9047 10.1864,3.14172 4.0019,1.23702 7.6928,2.36521 8.2021,2.50708 0.8331,0.23205 41.3531,12.69241 60.325,18.55057 4.1474,1.28063 28.7338,8.84724 54.6365,16.81471 l 47.0958,14.48629 2.0498,2.58626 c 1.7812,2.24741 2.1799,2.60944 3.0427,2.76313 1.4122,0.25156 31.5565,6.19992 32.3058,6.3749 0.3417,0.0798 0.5798,0.033 0.5292,-0.10397 -0.051,-0.13697 -1.5208,-1.53182 -3.2671,-3.09967 -1.7462,-1.56786 -5.9729,-5.36916 -9.3927,-8.44735 -3.4197,-3.07819 -9.3133,-8.37963 -13.0969,-11.78096 -3.7835,-3.40134 -8.0102,-7.21185 -9.3927,-8.4678 -1.3824,-1.25595 -15.0151,-13.51998 -30.2948,-27.25341 -15.2796,-13.73343 -29.5006,-26.52326 -31.602,-28.42185 -2.1015,-1.89858 -5.0886,-4.58307 -6.6381,-5.96551 -13.1972,-11.77444 -18.7133,-16.90886 -18.044,-16.79555 0.3969,0.0672 2.9838,0.29984 5.7487,0.51698 6.6016,0.51846 19.7312,1.57923 29.6334,2.39414 4.3656,0.35927 11.5689,0.94796 16.0072,1.30819 14.1469,1.14821 24.5148,1.99177 32.7422,2.664 4.4019,0.35967 11.6647,0.95219 16.1395,1.3167 4.4748,0.36452 11.0531,0.90363 14.6183,1.19802 3.5653,0.29439 11.5109,0.94551 17.6569,1.44693 l 11.1746,0.91167 8.2723,4.20295 c 4.5497,2.31163 14.3445,7.27155 21.766,11.02205 7.4216,3.7505 18.2563,9.22807 24.0771,12.17239 5.8209,2.94432 22.6682,11.45733 37.4386,18.91779 14.7703,7.46046 27.1068,13.81617 27.4143,14.1238 0.3076,0.30762 4.1878,5.55994 8.6228,11.67181 4.435,6.11188 11.7526,16.17266 16.2612,22.3573 4.5087,6.18463 12.3614,16.95979 17.4505,23.94479 5.0891,6.985 10.3495,14.19738 11.6896,16.02751 l 2.4366,3.32753 3.3724,0.69622 c 1.8548,0.38291 3.8163,0.77354 4.3589,0.86805 0.9712,0.16917 2.3331,1.25767 13.0364,10.41969 1.3097,1.12109 8.7511,7.43823 16.5364,14.0381 7.7854,6.59987 15.2863,12.96707 16.6688,14.14936 3.5108,3.00252 7.62,6.49499 21.1667,17.99021 15.7136,13.33408 24.4849,20.79083 28.8485,24.52503 l 3.6079,3.08755 1.8704,5.37912 c 1.9906,5.7251 9.9896,28.50634 15.5452,44.27289 2.993,8.49431 16.5248,46.98203 20.5118,58.34062 3.3914,9.66198 11.8115,33.62828 15.7376,44.79431 l 4.1679,11.8537 -2.7084,10.10671 c -1.4896,5.55872 -3.519,13.14284 -4.5097,16.85362 -1.9084,7.14753 -1.9168,7.17907 -4.7832,17.85938 -6.9759,25.992054 -8.1735,30.538524 -8.1735,31.028454 0,0.30245 1.0869,4.99383 2.4154,10.4253 1.3284,5.43147 2.9224,11.95901 3.5423,14.50562 0.6198,2.54662005 3.6245,14.86959 6.6771,27.38438 l 5.55,22.75417 -0.6189,8.33437 c -0.3404,4.58391 -0.921,12.50156 -1.2902,17.59479 -0.9672,13.34053 -1.6719,22.9061 -2.2223,30.162496 l -0.4816,6.35001 -2.6528,5.55625 c -1.459,3.05593 -4.4398,9.30671 -6.6239,13.89062 -2.1842,4.58391 -5.3664,11.25141 -7.0715,14.81667 -1.7051,3.56526 -4.2042,8.80401 -5.5534,11.64166 -1.3493,2.83766 -3.222,6.76672 -4.1615,8.73125 -0.9395,1.96453 -3.0549,6.4022 -4.7009,9.8615 -1.646,3.45927 -3.0279,6.25451 -3.0707,6.21162 -0.043,-0.0429 -1.8216,-4.06384 -3.9527,-8.93545 -2.131,-4.87159 -5.2811,-12.07215 -7.0001,-16.00121 -1.719,-3.92906 -6.3663,-14.52562 -10.3273,-23.54791 -3.9609,-9.0223 -7.5749,-17.25454 -8.0309,-18.29388 l -0.8292,-1.88971 -18.2152,-16.186746 c -10.0184,-8.90273 -18.3528,-16.13311 -18.5209,-16.06749 -0.1681,0.0656 -4.3525,5.89108 -9.2987,12.94553 l -8.9933,12.826236 -19.2728,5.52564 c -10.6,3.03911 -19.4084,5.60945 -19.5741,5.71187 -0.1657,0.10242 -0.2452,0.23786 -0.1767,0.30099 0.068,0.0631 3.5179,2.60628 7.6653,5.65145 8.4631,6.21401 23.2497,17.09992 25.2677,18.60201 1.3676,1.01801 5.2646,3.8935 15.4351,11.38917 3.2506,2.39567 8.6084,6.35336 11.9063,8.79488 3.2978,2.44153 7.1272,5.26471 8.5096,6.27375 3.4021,2.48317 34.5038,25.49081 47.2281,34.93725 50.056,37.16108 67.3066,50.17948 68.9053,52.00026 0.7843,0.89321 0.8124,1.01206 0.8124,3.42524 v 2.49992 l 3.3735,3.7596 c 1.8554,2.06777 5.457,6.0965 8.0036,8.9527 4.4467,4.98729 12.0159,13.44078 22.6214,25.26425 2.7411,3.05593 10.4111,11.62394 17.0443,19.03997 6.6332,7.41606 13.0724,14.61222 14.3093,15.99147 1.2369,1.37925 3.3801,3.7728 4.7625,5.31902 1.3825,1.54623 6.5022,7.26094 11.3771,12.6994 4.875,5.43843 11.2147,12.51484 14.0883,15.72535 l 5.2247,5.83729 v 67.25936 67.25934 l -4.2112,12.11567 c -13.1909,37.95067 -19.7492,56.81715 -22.6981,65.29689 -1.8219,5.23875 -3.8237,11.01328 -4.4485,12.83229 -0.6248,1.81901 -2.0275,5.86714 -3.1173,8.99584 -3.0115,8.6465 -12.0648,34.68396 -20.469,58.86979 -4.1465,11.93271 -8.4739,24.37474 -9.6166,27.64896 -1.1426,3.27422 -2.5495,7.32234 -3.1263,8.99583 -1.681,4.87686 -5.5781,16.09908 -6.3249,18.21342 -0.4124,1.16753 -0.7573,1.80041 -0.8652,1.5875 -0.099,-0.19473 -2.9042,-6.87271 -6.2347,-14.83998 -3.3304,-7.96726 -6.1178,-14.4817 -6.1942,-14.47652 -0.076,0.005 -0.4595,0.68977 -0.8514,1.52136 -0.3919,0.83156 -4.2167,8.65568 -8.4996,17.38693 -4.2829,8.73125 -10.1795,20.75657 -13.1036,26.72292 l -5.3166,10.84792 -9.9963,8.42827 c -10.8423,9.14149 -14.3787,12.11863 -27.8557,23.45008 -4.8749,4.09884 -10.1732,8.55871 -11.774,9.91084 -1.6007,1.3521 -8.6849,7.31382 -15.7427,13.24827 -7.0577,5.93445 -16.4041,13.79802 -20.7698,17.47459 -31.2049,26.28109 -33.4486,28.1619 -33.5941,28.1619 -0.076,0 -0.1386,-3.80999 -0.1386,-8.46666 0,-4.65666 -0.058,-8.46666 -0.1287,-8.46666 -0.071,0 -3.5601,2.48245 -7.754,5.51658 -4.1939,3.03411 -7.9162,5.70659 -8.2718,5.93882 -0.3556,0.23222 -2.9087,0.91143 -5.6736,1.50936 -2.7649,0.59794 -5.7415,1.25916 -6.6146,1.46939 -0.8731,0.21024 -11.053,2.46777 -22.6219,5.01677 -11.5689,2.549 -22.2845,4.9221 -23.8125,5.2735 -1.528,0.3513 -9.3861,2.0925 -17.4625,3.8692 -11.6819,2.5699 -14.8467,3.3544 -15.4781,3.8365 -0.4366,0.3333 -6.2707,5.1504 -12.9646,10.7047 -6.694,5.5542 -15.7427,13.053 -20.1083,16.6639 -4.3657,3.6109 -10.2115,8.451 -12.9907,10.7557 -20.6993,17.1651 -29.2573,24.2059 -29.3253,24.1263 -0.2196,-0.2565 -14.5122,-20.7867 -14.7079,-21.1266 -0.2031,-0.3527 -0.2705,-0.3527 -0.6068,0 -0.3437,0.3606 -5.8777,8.8953 -23.675,36.5125 -3.4229,5.3116 -6.3533,9.7995 -6.512,9.9733 -0.2147,0.2351 -0.8919,-0.8144 -2.6459,-4.101 z m 7.866,-27.7745 c 2.3022,-3.5973 5.3839,-8.386 6.8482,-10.6415 1.4644,-2.2556 5.3089,-8.2087 8.5433,-13.2292 3.2344,-5.0205 15.1819,-23.5126 26.5501,-41.0937 l 20.6694,-31.96552 1.2038,-10.63238 c 0.6621,-5.8478 1.7333,-15.33533 2.3804,-21.08341 0.6472,-5.74807 1.896,-16.82088 2.7751,-24.60625 0.8792,-7.78536 1.7715,-15.70302 1.983,-17.59479 0.2114,-1.89177 1.0452,-9.27365 1.8527,-16.40417 1.6577,-14.63635 2.9447,-26.04614 5.805,-51.46146 1.089,-9.67713 2.2858,-20.2737 2.6595,-23.54791 0.3738,-3.27422 0.911,-8.03672 1.1938,-10.58334 0.2829,-2.54661 1.175,-10.46427 1.9825,-17.59479 0.8075,-7.13052 1.8317,-16.17927 2.276,-20.10833 0.4442,-3.92907 0.7629,-7.44141 0.708,-7.80521 -0.055,-0.36381 -5.3997,-7.86474 -11.8773,-16.66875 -6.4776,-8.80401 -20.1068,-27.31823 -30.2872,-41.14271 -10.1803,-13.82448 -25.5312,-34.68648 -34.1132,-46.36003 -8.5819,-11.67353 -15.7139,-21.19149 -15.8488,-21.15103 -0.1349,0.0405 -2.8734,3.99571 -6.0854,8.78943 -11.2593,16.80348 -28.6529,42.72928 -39.3077,58.58933 -12.4556,18.54073 -23.389,34.83851 -32.3045,48.15417 l -6.2889,9.39271 0.3687,2.64583 c 0.2027,1.45521 1.2119,9.13474 2.2427,17.06563 2.3022,17.71322 3.6549,28.11092 4.8706,37.43854 1.4848,11.39288 1.714,13.14707 2.5575,19.57917 0.439,3.34698 1.0284,7.88929 1.3099,10.09401 0.2815,2.20472 1.1655,8.99129 1.9644,15.08126 1.5116,11.52281 1.6091,12.27134 3.3214,25.49244 0.9895,7.63979 1.7559,13.49928 2.9068,22.225 0.2783,2.11005 0.8686,6.63443 1.3118,10.05417 0.4432,3.41974 1.2253,9.4324 1.7381,13.36146 3.1616,24.22676 3.9512,30.30588 5.5328,42.59792 0.3745,2.91041 0.7477,5.58932 0.8293,5.95312 0.082,0.3638 3.0747,6.13834 6.6513,12.83229 7.0896,13.2688 19.8352,37.1016 21.649,40.4813 0.6248,1.1641 3.2656,6.1052 5.8685,10.9802 17.1426,32.1068 21.0807,39.422 21.2185,39.4149 0.085,0 2.0387,-2.9511 4.3409,-6.5484 z m 51.553,-19.4979 c 4.5597,-3.7796 10.7312,-8.8941 13.7143,-11.3655 2.9832,-2.4714 7.5076,-6.2199 10.0542,-8.3299 4.6924,-3.888 9.2393,-7.6524 16.0734,-13.3075 5.0356,-4.1669 10.3248,-8.5446 15.9412,-13.1939 2.5466,-2.1081 6.5947,-5.4565 8.9958,-7.44081 2.4011,-1.98435 8.3635,-6.92177 13.2499,-10.97206 4.8863,-4.0503 9.9536,-8.2427 11.2606,-9.31643 l 2.3764,-1.95226 8.4972,-26.88733 c 4.6735,-14.78803 10.4205,-32.95951 12.7711,-40.38108 2.3507,-7.42156 6.8335,-21.59 9.9618,-31.48541 5.4481,-17.23348 7.5966,-24.02115 13.211,-41.73803 1.395,-4.402 5.1452,-16.25967 8.3337,-26.35038 l 5.7974,-18.34674 -8.2676,-11.14645 c -23.8901,-32.20886 -39.9602,-53.86676 -47.1539,-63.54966 -3.3515,-4.51115 -6.9864,-9.41827 -8.0776,-10.90475 -1.0912,-1.48646 -2.0817,-2.70685 -2.2011,-2.71198 -0.1194,-0.005 -5.1725,4.72342 -11.229,10.50788 -6.0566,5.78445 -14.815,14.14859 -19.4631,18.58698 -4.6482,4.43838 -8.7927,8.3463 -9.21,8.68428 -0.4174,0.33795 -0.7589,0.73925 -0.7589,0.89175 0,0.15251 1.265,1.99795 2.8111,4.10097 l 2.8111,3.82368 -0.9535,8.51373 c -1.241,11.0803 -3.9688,35.26431 -4.7951,42.51267 -0.3567,3.1287 -1.0684,9.43901 -1.5816,14.02292 -0.5132,4.58391 -1.4062,12.50156 -1.9846,17.59479 -0.5783,5.09323 -1.2311,10.86776 -1.4506,12.83229 -0.7251,6.49015 -2.7589,24.53683 -4.249,37.70313 -1.2779,11.29125 -3.2723,28.9936 -4.5011,39.95208 -0.2121,1.89178 -0.7994,7.07099 -1.3051,11.50938 -1.3542,11.88601 -3.2246,28.50653 -4.1239,36.64479 -0.4341,3.92907 -0.8888,7.56047 -1.0104,8.0698 -0.1215,0.50932 -5.3399,8.84369 -11.5962,18.52083 -6.2564,9.67712 -15.2178,23.54792 -19.9142,30.82392 -4.6964,7.2761 -9.0477,14.0031 -9.6696,14.949 l -1.1306,1.7198 1.1038,1.5875 c 7.0162,10.0907 8.9894,12.8413 9.1653,12.7764 0.1139,-0.042 3.9378,-3.1688 8.4974,-6.9484 z m -96.8544,5.086 c 0.3766,-0.6184 2.31,-3.8075 4.2963,-7.0867 l 3.6116,-5.9623 -8.622,-16.1304 c -19.493,-36.46854 -20.0338,-37.48121 -25.9221,-48.5419 -0.1937,-0.36381 -0.7154,-3.51896 -1.1594,-7.01146 -0.4439,-3.4925 -1.2265,-9.56469 -1.7391,-13.49375 -0.5125,-3.92907 -1.3499,-10.35844 -1.8609,-14.2875 -0.511,-3.92907 -1.4579,-11.19188 -2.1043,-16.13959 -0.6464,-4.94771 -1.3534,-10.36505 -1.571,-12.03854 -0.2176,-1.67349 -1.1101,-8.51958 -1.9833,-15.21354 -0.8732,-6.69396 -1.7734,-13.59959 -2.0005,-15.34584 -1.7237,-13.25419 -2.6199,-20.16156 -3.3127,-25.53229 -0.4411,-3.41974 -0.9732,-7.46786 -1.1824,-8.99583 -0.2091,-1.52797 -0.681,-5.09985 -1.0484,-7.9375 -0.3675,-2.83766 -1.2021,-9.26703 -1.8547,-14.2875 -0.6526,-5.02047 -1.4249,-10.9736 -1.7161,-13.22917 -0.8271,-6.40654 -3.9024,-29.99637 -4.6564,-35.71875 -0.374,-2.83766 -1.4333,-10.87438 -2.3542,-17.85938 l -1.6742,-12.7 2.7425,-4.1565 c 1.5084,-2.28608 2.5684,-4.08966 2.3555,-4.00796 -0.3637,0.13954 -2.6678,-1.98234 -14.4142,-13.27383 -5.2845,-5.07984 -24.885,-23.72056 -26.2459,-24.96071 l -1.2398,-1.12982 -5.1102,6.87591 c -2.8106,3.78177 -8.0986,10.90387 -11.7512,15.82692 -3.6526,4.92305 -10.1318,13.65396 -14.3983,19.40203 -4.2665,5.74808 -8.5501,11.52261 -9.5191,12.83229 -4.6669,6.30778 -22.7086,30.60846 -23.7241,31.95442 l -1.1523,1.52731 3.3309,10.51124 c 1.832,5.78117 4.3824,13.84495 5.6674,17.91954 2.2297,7.06966 7.7796,24.61389 13.0987,41.40729 6.1375,19.37742 9.5647,30.20954 14.8588,46.96354 5.9797,18.92385 10.0741,31.86174 15.5952,49.27865 1.8337,5.78446 3.9373,12.44865 4.6748,14.80934 l 1.3409,4.29215 14.309,11.83923 c 17.9905,14.8852 22.168,18.3434 27.9352,23.1256 2.5466,2.1116 9.8689,8.1732 16.2719,13.4701 14.2014,11.7483 16.4642,13.6228 35.547,29.4456 3.107,2.5763 5.7272,4.6841 5.8227,4.6841 0.095,0 0.4818,-0.506 0.8584,-1.1245 z m -99.775,-54.1736 c 0,-0.3107 -1.5781,-10.63781 -1.6625,-10.87961 -0.032,-0.0903 -2.26,-1.98078 -4.9521,-4.20106 -2.6921,-2.22025 -5.0375,-4.17044 -5.212,-4.33371 -0.1745,-0.16328 -1.5235,-4.10687 -2.9979,-8.76353 -9.2479,-29.20786 -15.9847,-50.50367 -18.121,-57.2823 -1.353,-4.29286 -3.6121,-11.43661 -5.0204,-15.875 -1.4082,-4.43838 -5.1188,-16.16604 -8.2457,-26.06146 -6.3239,-20.01221 -10.2548,-32.43212 -16.5388,-52.25521 -2.3296,-7.3488 -5.7858,-18.27241 -7.6805,-24.2747 l -3.4448,-10.91324 2.9636,-4.01236 c 1.63,-2.20681 3.0122,-4.14192 3.0717,-4.30029 0.059,-0.15838 -2.3627,-2.16099 -5.3825,-4.45027 -8.7646,-6.64422 -15.4899,-11.73721 -25.5988,-19.3856 -5.193,-3.92906 -11.9014,-9.01671 -14.9075,-11.30588 -3.0061,-2.28915 -5.5426,-4.16439 -5.6366,-4.16719 -0.094,-0.003 -1.2366,1.69159 -2.5388,3.76526 -3.3154,5.2792 -15.6638,24.9069 -25.3433,40.28281 -14.098,22.39479 -15.7355,25.02424 -15.7355,25.26864 0,0.24932 2.734,7.18682 12.3032,31.21991 3.1579,7.93088 7.8215,19.65854 10.3636,26.06146 2.5422,6.40291 7.3463,18.48776 10.6758,26.85521 3.3296,8.36744 9.9376,24.97666 14.6845,36.90937 4.7469,11.93271 9.2566,23.26759 10.0216,25.18863 l 1.3909,3.49279 1.9641,1.40935 c 1.7909,1.28511 5.7003,4.10793 20.6172,14.88676 2.8376,2.05049 6.1803,4.46032 7.4281,5.35519 2.5227,1.80914 0.9732,1.2786 18.3688,6.28926 9.5499,2.75076 17.5352,5.05608 26.5906,7.67654 3.7108,1.07381 8.89,2.5704 11.5094,3.32573 2.6193,0.75533 7.3223,2.1208 10.451,3.0343 5.9215,1.729 6.6146,1.88 6.6146,1.4402 z m 315.6479,-12.97943 c 16.3711,-3.62428 30.0142,-6.64879 30.3181,-6.72115 0.3038,-0.0723 7.7453,-5.31831 16.5365,-11.6577 l 15.9839,-11.52615 1.4841,-3.62694 c 0.8162,-1.99483 3.8971,-9.69915 6.8464,-17.12071 10.5064,-26.4378 16.1616,-40.66122 21.3027,-53.57813 2.8669,-7.20328 6.6773,-16.78781 8.4674,-21.29896 1.7901,-4.51114 6.0765,-15.2863 9.5253,-23.94479 3.4487,-8.65849 7.5206,-18.89787 9.0487,-22.75417 1.5281,-3.8563 2.8286,-7.13467 2.8901,-7.28527 0.061,-0.15058 -0.4117,-1.10308 -1.0515,-2.11667 -1.434,-2.27153 -8.3909,-13.32651 -21.473,-34.12202 -5.4927,-8.73125 -12.4412,-19.7743 -15.4411,-24.5401 -2.9999,-4.76581 -5.5514,-8.66511 -5.6699,-8.66511 -0.2092,0 -4.6701,3.35357 -30.571,22.98195 -6.7901,5.14575 -12.5696,9.51362 -12.8432,9.70637 -0.5491,0.3868 -0.5713,0.35359 7.0576,10.54378 l 3.1489,4.20606 -0.3921,1.35019 c -0.2156,0.74261 -2.2621,7.24379 -4.5479,14.44707 -2.2858,7.20328 -5.2068,16.43063 -6.4912,20.50521 -2.3851,7.56682 -5.514,17.45856 -9.9173,31.35313 -5.3686,16.94053 -7.75,24.46507 -13.9841,44.18542 -3.5652,11.27786 -8.0468,25.4463 -9.9591,31.48541 -1.9124,6.03912 -6.3938,20.19978 -9.9587,31.46814 -3.5649,11.26837 -6.6403,20.61478 -6.8341,20.7698 -1.9242,1.53913 -13.4893,11.17494 -14.2995,11.91408 l -1.0583,0.96554 1.0583,-0.16732 c 0.5821,-0.092 14.4529,-3.13267 30.824,-6.75696 z m -435.422,-31.6688 c -2.6857,-6.94862 -7.245,-18.76557 -10.1317,-26.25989 -2.8866,-7.49433 -6.991,-18.13817 -9.1208,-23.65301 l -3.8722,-10.02697 -3.3763,-4.12824 c -1.8569,-2.27052 -18.039,-22.24503 -35.9602,-44.38775 l -32.5841,-40.2595 -7.4232,-24.16654 c -4.0828,-13.29161 -7.528,-24.40467 -7.6561,-24.69571 -0.3062,-0.69575 -0.1628,-1.18247 -2.5335,8.59896 -1.916,7.90498 -3.5305,14.50015 -10.2223,41.75628 -1.5834,6.44935 -2.8789,11.87633 -2.8789,12.05997 0,0.18362 3.8228,8.12284 8.4951,17.64268 4.6723,9.51982 9.4815,19.33284 10.6872,21.8067 1.2056,2.47385 4.5055,9.20451 7.33309997,14.957 l 5.14100003,10.45911 2.6529,2.24089 c 1.459,1.23251 7.3942,6.22951 13.1893,11.10446 5.795,4.87495 13.2949,11.18526 16.6663,14.02292 3.3714,2.83765 10.0947,8.49312 14.9406,12.56771 4.8459,4.07458 12.342,10.38489 16.6582,14.02291 4.3161,3.63802 12.5958,10.60318 18.3993,15.47813 5.8036,4.87495 11.7507,9.89769 13.2158,11.16163 1.4652,1.26394 2.7989,2.30574 2.9638,2.31511 0.1649,0.009 -1.8975,-5.66823 -4.5833,-12.61685 z m 516.4023,1.65365 c 2.9424,-2.47385 9.2321,-7.76841 13.977,-11.76568 4.7449,-3.99727 12.0799,-10.16902 16.3,-13.71505 4.2201,-3.54599 10.1137,-8.50418 13.0969,-11.01815 4.9744,-4.19205 17.4118,-14.65519 32.2004,-27.08915 l 5.8744,-4.93906 1.1866,-2.51354 c 0.6527,-1.38245 3.5897,-7.3951 6.5268,-13.36146 2.9371,-5.96635 6.44,-13.1101 7.7843,-15.875 1.3442,-2.76489 5.5569,-11.36581 9.3615,-19.11315 l 6.9175,-14.08608 -0.7991,-5.22851 c -0.4395,-2.87568 -1.2181,-8.02648 -1.7302,-11.44622 -0.5121,-3.41974 -1.3481,-8.95614 -1.8578,-12.30312 -0.5096,-3.34698 -1.3422,-8.82386 -1.8501,-12.17084 -0.5079,-3.34698 -1.33,-8.76432 -1.827,-12.03854 -0.4969,-3.27422 -0.9484,-6.25078 -1.0034,-6.61458 l -0.1,-0.66146 -0.3311,0.79375 c -0.1821,0.43656 -3.2146,10.14016 -6.7388,21.56354 l -6.4078,20.76979 -3.6741,4.7625 c -5.3957,6.99405 -9.9658,12.91522 -17.8688,23.15105 -3.8762,5.02047 -12.9223,16.74812 -20.1024,26.06146 -15.2878,19.83007 -19.2118,24.91528 -25.3659,32.87244 l -4.5513,5.88494 -5.1248,12.90048 c -6.4285,16.18236 -12.9857,32.67075 -16.7949,42.2316 -1.6151,4.05389 -2.9366,7.42733 -2.9366,7.49652 0,0.3102 0.8115,-0.32197 5.8386,-4.54848 z M 59.30868,703.94391 c -0.664,-1.73358 -1.5435,-4.04493 -1.9545,-5.13633 -0.411,-1.09141 -3.0971,-8.05657 -5.9692,-15.47813 -5.6849,-14.69006 -6.8284,-17.65221 -8.712,-22.56816 l -1.2466,-3.25359 0.5005,-0.84746 c 0.4538,-0.76827 3.6686,-5.88698 18.479,-29.42246 8.0592,-12.80705 12.7823,-20.30801 24.0737,-38.23229 4.4013,-6.98675 5.4372,-8.82637 6.4066,-11.37708 0.6361,-1.67349 9.8437,-26.18132 20.4614,-54.46181 l 19.3049,-51.4191 -1.6017,-8.37674 c -0.8809,-4.60722 -1.8324,-9.56736 -2.1144,-11.02257 -0.282,-1.45521 -0.9518,-4.96755 -1.4884,-7.80521 -0.5367,-2.83765 -0.9972,-5.18681 -1.0234,-5.22036 -0.026,-0.0335 -1.6473,0.4164 -3.6025,0.99984 -1.9553,0.58343 -4.7456,1.40962 -6.2008,1.83599 -1.4553,0.42635 -4.6699,1.37181 -7.1438,2.10101 -2.4739,0.72919 -11.2249,3.29816 -19.4469,5.70883 -8.2219,2.41067 -17.3302,5.08656 -20.2406,5.94641 -2.9104,0.85987 -6.7799,1.99821 -8.599,2.52965 -6.6708,1.949 -8.4342,2.46597 -13.3614,3.91708 -2.7649,0.81431 -11.2779,3.3161 -18.9177,5.55958 -7.6399,2.24348 -17.8495,5.24523 -22.688,6.67057 l -8.7974,2.59154 v 54.48756 54.48758 l 5.707,18.55538 c 3.1389,10.20546 6.8811,22.36539 8.3162,27.02206 1.435,4.65667 3.4467,11.18804 4.4704,14.51417 1.0237,3.3261 1.9698,6.1836 2.1025,6.35 0.6583,0.82597 37.952,46.90613 40.8886,50.52216 1.8681,2.30018 3.4433,4.13528 3.5006,4.078 0.057,-0.0573 -0.4391,-1.52255 -1.1031,-3.25612 z m 597.3318,-2.75508 c 2.0754,-2.69214 5.5187,-7.15698 7.6518,-9.92188 2.1332,-2.76489 8.1489,-10.56349 13.3683,-17.33021 5.2195,-6.76672 10.6871,-13.8512 12.1503,-15.74326 4.3578,-5.63518 4.8311,-6.30714 5.124,-7.27549 0.154,-0.50932 1.4711,-4.79557 2.9268,-9.525 1.4557,-4.72943 5.9286,-19.27434 9.9397,-32.32203 l 7.293,-23.7231 -0.067,-54.31875 -0.067,-54.31874 -1.9844,-0.57465 c -1.0914,-0.31607 -4.3061,-1.25746 -7.1437,-2.09198 -2.8377,-0.83453 -6.7667,-1.98565 -8.7313,-2.55808 -3.2803,-0.9558 -6.6906,-1.95955 -18.7854,-5.52894 -2.4011,-0.70861 -9.0686,-2.66602 -14.8167,-4.3498 -14.2115,-4.16298 -19.817,-5.81092 -24.3416,-7.15598 -2.1101,-0.62727 -5.7415,-1.69542 -8.0698,-2.37371 -4.0761,-1.18739 -5.6828,-1.65782 -10.8479,-3.17627 -1.3097,-0.38502 -3.9291,-1.15303 -5.8209,-1.70667 -8.8382,-2.58662 -21.2496,-6.23228 -24.5433,-7.20926 -2.0027,-0.59404 -3.7178,-1.00343 -3.8115,-0.90977 -0.2077,0.20765 -6.1508,30.99382 -6.164,31.92984 -0.01,0.36589 1.6439,5.06886 3.6644,10.45104 2.0205,5.38218 10.4811,27.92019 18.8013,50.08441 l 15.1276,40.29861 7.6963,12.22119 c 11.4993,18.26001 21.5695,34.26224 28.9196,45.95556 8.5994,13.68062 15.8744,25.24019 16.8047,26.70148 l 0.7443,1.1692 -0.4825,1.21205 c -3.4058,8.55557 -11.2512,28.28986 -14.4652,36.38564 -2.2496,5.66653 -4.1593,10.41471 -4.2439,10.55153 -0.085,0.13681 -0.029,0.20354 0.1232,0.14827 0.1523,-0.0552 1.9749,-2.30312 4.0503,-4.99525 z m -699.84,-20.70365 c 2.5204,-3.96544 4.6799,-7.50755 4.7989,-7.87135 0.119,-0.36381 0.5224,-3.45943 0.8965,-6.87917 0.6162,-5.63314 0.8808,-7.03861 2.8144,-14.94896 2.4546,-10.04171 5.0333,-20.56202 12.1079,-49.39649 l 5.0437,-20.55691 v -48.65156 -48.65153 l 3.1803,-7.30436 3.1803,-7.30435 -0.9313,-17.94346 c -0.5123,-9.86888 -1.169,-22.58687 -1.4594,-28.26218 -0.2904,-5.67532 -0.6499,-12.58094 -0.7988,-15.34584 -0.3087,-5.72907 -0.8255,-15.74683 -1.5833,-30.69166 -0.2878,-5.67532 -0.703,-13.6525 -0.9228,-17.72709 -0.2197,-4.07458 -0.7001,-13.30193 -1.0676,-20.50521 -0.3674,-7.20328 -0.8988,-17.50219 -1.1809,-22.88646 -0.2821,-5.38427 -0.5901,-11.3374 -0.6843,-13.22917 -0.8071,-16.19848 -1.3272,-25.2926 -1.4494,-25.34166 -0.1289,-0.0518 -7.2439,7.81355 -31.1811,34.46979 -3.855,4.29286 -7.9812,8.87677 -9.1693,10.18646 -1.1881,1.30968 -3.9202,4.34578 -6.0714,6.74687 -2.1511,2.4011 -4.4019,4.90141 -5.0017,5.55625 -0.5998,0.65485 -3.1659,3.51235 -5.7025,6.35 -2.5365,2.83766 -5.2738,5.87375 -6.0827,6.74688 -0.8089,0.87312 -6.0542,6.70348 -11.6563,12.95636 -5.602,6.25287 -11.2239,12.50365 -12.4929,13.89062 l -2.3074,2.52177 -0.01,63.83399 -0.01,63.83398 1.831,5.35456 c 1.007,2.945 3.4605,10.11706 5.4523,15.9379 7.2126,21.07877 10.0207,29.28916 13.4831,39.42291 4.8056,14.06467 13.6558,39.92113 15.2145,44.45001 1.3954,4.05463 6.7309,19.64399 12.1795,35.58645 11.3831,33.30626 14.6902,42.86251 14.8334,42.86251 0.088,0 2.2224,-3.24446 4.7428,-7.2099 z m 790.2605,4.10104 c 0.1551,-0.40018 3.2771,-9.35963 6.9379,-19.90989 7.6428,-22.02681 16.9155,-48.72655 18.4696,-53.18126 0.5838,-1.67349 2.4461,-7.0313 4.1383,-11.90625 1.6922,-4.87495 3.5974,-10.35182 4.2338,-12.17083 0.6364,-1.81901 2.6627,-7.65307 4.5029,-12.96458 1.8402,-5.31152 4.2402,-12.21714 5.3333,-15.34584 1.0931,-3.1287 2.9783,-8.54604 4.1893,-12.03854 1.211,-3.4925 3.1748,-9.14797 4.3638,-12.56771 1.1891,-3.41974 3.2135,-9.2538 4.4987,-12.96458 1.2852,-3.71078 3.1207,-8.99798 4.0788,-11.74933 l 1.742,-5.00248 v -63.68156 -63.68153 l -6.2628,-6.98683 c -10.9756,-12.24438 -30.1263,-33.63688 -37.6521,-42.05965 -2.3978,-2.68359 -7.4023,-8.27254 -11.1211,-12.41989 -7.7745,-8.6705 -28.6857,-32.02051 -31.9978,-35.72962 -1.2291,-1.37647 -2.3128,-2.53648 -2.4082,-2.57781 -0.095,-0.0413 -0.2552,1.44695 -0.3551,3.30729 -0.1,1.86034 -0.53,8.97837 -0.9556,15.81785 -0.7657,12.30212 -1.507,24.31632 -2.7835,45.11146 -0.3617,5.8936 -0.8941,14.52563 -1.1831,19.1823 -0.2889,4.65667 -0.8262,13.40776 -1.1939,19.44687 -0.3676,6.03912 -0.9024,14.73068 -1.1883,19.31459 -0.7761,12.44388 -0.7507,12.03537 -1.4591,23.54792 -0.3627,5.89359 -0.9524,15.47812 -1.3106,21.29896 -0.3581,5.82083 -0.7299,11.96017 -0.8261,13.64297 l -0.1748,3.05964 3.274,0.96663 c 1.8008,0.53166 5.953,1.75869 9.2272,2.72677 3.2743,0.96808 6.1615,1.81928 6.4162,1.89156 0.4392,0.12467 0.463,3.14214 0.463,58.60066 v 58.46921 l 1.5941,10.49002 c 0.8768,5.76953 1.8838,12.39504 2.2378,14.72338 0.3541,2.32833 1.1314,7.44802 1.7274,11.37708 0.596,3.92906 1.664,10.95375 2.3734,15.61042 0.7094,4.65666 2.2684,14.95557 3.4644,22.88646 l 2.1745,14.41979 2.4085,5.87978 c 1.3246,3.2339 2.4833,5.88304 2.5748,5.88698 0.092,0.004 0.2933,-0.32023 0.4484,-0.72041 z m -584.2908,-71.18755 c 1.8889,-2.57495 5.2912,-7.18203 7.5607,-10.23797 2.2694,-3.05594 8.8079,-11.86656 14.5298,-19.57917 11.3674,-15.32197 16.3081,-21.97732 22.3647,-30.12641 7.6979,-10.3573 13.7809,-18.57552 14.9536,-20.20224 0.6523,-0.90492 1.2634,-1.6193 1.3579,-1.5875 0.1636,0.055 17.5558,16.5779 24.5666,23.33861 1.8191,1.75413 8.1869,7.83011 14.1507,13.50219 5.9639,5.67206 11.126,10.58796 11.4713,10.9242 0.3454,0.33623 0.6575,0.57435 0.6936,0.52916 0.036,-0.0452 4.2178,-6.27343 9.2926,-13.84051 5.0748,-7.56708 12.7037,-18.93755 16.9532,-25.26771 4.2494,-6.33016 11.2378,-16.74812 15.5297,-23.15104 4.2919,-6.40292 11.3992,-16.99948 15.7941,-23.54792 16.0582,-23.92699 17.9771,-26.80578 18.1262,-27.19451 0.1732,-0.45125 -0.4501,-0.82738 -6.8936,-4.16012 -2.3284,-1.20425 -9.5912,-4.98584 -16.1396,-8.40351 -6.5485,-3.41768 -13.216,-6.89682 -14.8167,-7.73145 -1.6007,-0.8346 -5.7084,-2.97815 -9.1281,-4.7634 -3.4198,-1.78527 -8.9562,-4.67466 -12.3031,-6.42083 -3.347,-1.74619 -8.7048,-4.54321 -11.9063,-6.21561 -3.2015,-1.67238 -7.2496,-3.78442 -8.9958,-4.6934 -1.7463,-0.909 -5.7944,-3.02241 -8.9959,-4.69651 -3.2014,-1.6741 -8.6188,-4.50241 -12.0385,-6.28515 -3.4197,-1.78274 -7.5274,-3.92679 -9.1281,-4.76459 -1.6008,-0.8378 -9.697,-5.0646 -17.9917,-9.39292 -8.2947,-4.32832 -20.4391,-10.66726 -26.9875,-14.08655 -6.5484,-3.41926 -13.5136,-7.05308 -15.4781,-8.07511 -1.9646,-1.02203 -5.8936,-3.07438 -8.7313,-4.56073 -2.8376,-1.48635 -7.1834,-3.74713 -9.6573,-5.02393 -2.4738,-1.27683 -5.0932,-2.64764 -5.8208,-3.04626 -0.7276,-0.39865 -3.2279,-1.70759 -5.5562,-2.90883 -2.3284,-1.20121 -5.3049,-2.74902 -6.6146,-3.43955 -1.3097,-0.69057 -3.9291,-2.06103 -5.8209,-3.04549 -4.8713,-2.53505 -8.6196,-4.49615 -11.377,-5.95257 -1.3097,-0.69175 -4.2863,-2.23983 -6.6146,-3.4402 -2.3284,-1.20036 -5.1859,-2.68777 -6.35,-3.30536 -1.1642,-0.61756 -3.605,-1.89674 -5.424,-2.8426 -4.9727,-2.58572 -15.018,-7.82579 -21.5635,-11.24858 -3.2015,-1.67409 -7.2496,-3.78798 -8.9959,-4.69757 -7.0312,-3.66236 -26.763,-13.9605 -59.9281,-31.27695 -20.9259,-10.92602 -24.4995,-12.77252 -24.7187,-12.77252 -0.107,0 -0.1221,1.16086 -0.033,2.57968 0.089,1.41883 0.3938,7.1636 0.6784,12.76615 0.5398,10.6267 1.4943,29.10105 2.3786,46.0375 0.2849,5.45703 0.6413,12.42219 0.792,15.47813 0.1507,3.05594 0.4479,8.77094 0.6604,12.7 0.2125,3.92906 0.5101,9.64407 0.6614,12.7 0.1512,3.05594 0.5098,10.0211 0.7967,15.47813 0.287,5.45703 0.8231,15.75594 1.19139997,22.88646 0.3683,7.13052 0.9019,17.42943 1.1857,22.88646 0.2838,5.45703 0.58850003,11.58875 0.67710003,13.62604 0.089,2.03729 0.2026,3.83995 0.2534,4.0059 0.097,0.31694 3.2353,-0.56439 45.2427,-12.70537 3.7835,-1.09353 12.237,-3.52955 18.7854,-5.41341 18.5456,-5.33516 36.5661,-10.52565 41.9364,-12.07902 2.6922,-0.77867 8.4667,-2.4465 12.8323,-3.7062 4.3657,-1.25974 9.3544,-2.69981 11.086,-3.20014 1.7316,-0.50033 3.1726,-0.87791 3.2021,-0.83907 0.03,0.0389 1.1444,5.78564 2.4774,12.77064 1.3331,6.985 3.4789,18.22903 4.7687,24.98672 l 2.3449,12.2867 -12.3754,32.95706 c -6.8064,18.12636 -15.6115,41.57387 -19.5668,52.10558 -3.9553,10.53172 -7.0929,19.235 -6.9725,19.34065 0.1204,0.10565 2.8979,2.21557 6.1721,4.68873 3.2742,2.4732 8.513,6.43459 11.6417,8.80317 3.1287,2.36855 8.1888,6.1949 11.2448,8.50297 3.0559,2.30806 9.8425,7.46357 15.0812,11.45669 5.2388,3.99312 9.6441,7.26303 9.7896,7.26647 0.1455,0.003 1.81,-2.10056 3.6989,-4.67551 z m 412.7837,-11.10139 c 24.5595,-18.61465 30.1784,-22.86354 30.4919,-23.05727 0.2168,-0.13401 -5.7051,-16.21465 -19.692,-53.47298 l -20.0021,-53.28137 0.8112,-4.24792 c 3.1626,-16.56199 8.528,-44.58911 8.6477,-45.17257 0.1299,-0.6336 0.2198,-0.68382 0.856,-0.47792 0.391,0.12655 3.2112,0.9629 6.2672,1.85854 3.0559,0.89561 7.5207,2.20858 9.9218,2.91769 2.4011,0.70908 14.486,4.26024 26.8552,7.89144 12.3693,3.63122 31.0026,9.10381 41.4073,12.16131 28.3477,8.33019 34.3884,10.09134 34.6131,10.09134 0.1124,0 0.4742,-4.43508 0.804,-9.85573 0.3298,-5.42065 0.8884,-14.49917 1.2415,-20.17448 0.8812,-14.16532 1.561,-25.19522 2.5033,-40.61355 0.4402,-7.20328 1.098,-17.9189 1.4618,-23.8125 0.3637,-5.89359 0.9572,-15.53766 1.3189,-21.43125 0.3617,-5.89359 0.8946,-14.52563 1.1844,-19.18229 0.2897,-4.65667 0.8218,-13.34823 1.1823,-19.31459 0.3606,-5.96635 0.7245,-11.83018 0.8088,-13.03073 0.084,-1.20054 0.087,-2.18281 0.01,-2.18281 -0.1522,0 -2.8111,1.38049 -27.001,14.01916 -28.5304,14.90644 -41.5473,21.70372 -113.5062,59.27165 -11.3507,5.92587 -27.3646,14.28771 -35.5865,18.58184 -8.2219,4.29417 -17.7469,9.26656 -21.1667,11.0498 -3.4197,1.78324 -10.1467,5.29619 -14.9489,7.80656 -4.8022,2.51039 -15.5178,8.10662 -23.8125,12.4361 -8.2947,4.32948 -19.0103,9.92505 -23.8125,12.43463 -4.8022,2.50957 -14.1486,7.39121 -20.7698,10.84807 -6.6212,3.45686 -15.8486,8.27686 -20.5052,10.7111 -4.6567,2.43425 -11.5028,6.00843 -15.2136,7.94261 -17.3478,9.04229 -22.3744,11.69064 -22.5881,11.90101 -0.2257,0.22222 1.1734,2.16752 17.6046,24.47769 14.1135,19.1633 53.7064,72.94769 56.5807,76.86146 5.1188,6.96974 9.0518,12.294 9.5488,12.92633 l 0.4897,0.6232 1.1532,-1.02008 c 0.6343,-0.56105 4.834,-4.53792 9.3327,-8.83753 9.9333,-9.4937 19.5032,-18.6223 20.6514,-19.69921 0.4655,-0.43656 4.9076,-4.66328 9.8714,-9.39271 4.9638,-4.72943 9.1315,-8.59896 9.2616,-8.59896 0.13,0 4.9784,6.38972 10.7741,14.19934 5.7957,7.80966 13.5704,18.28716 17.2772,23.28334 3.7067,4.9962 8.5964,11.5843 10.866,14.64024 2.2696,3.05594 6.9075,9.30672 10.3066,13.89063 9.9821,13.46176 10.6065,14.28766 10.7985,14.28398 0.1007,-0.003 6.2681,-4.61561 13.7054,-10.25261 z M 348.11598,450.49971 c 0,-0.0708 -3.4962,-7.0062 -7.7694,-15.41198 -4.2732,-8.40582 -11.7296,-23.08188 -16.5699,-32.6135 -4.8403,-9.53161 -10.7363,-21.14021 -13.1022,-25.79687 -16.0369,-31.5638 -20.6577,-40.6661 -22.3638,-44.05313 -1.0629,-2.11006 -4.8708,-9.61099 -8.4619,-16.66876 -3.5912,-7.05776 -9.1222,-17.95197 -12.2912,-24.20937 -3.1689,-6.2574 -7.1629,-14.11552 -8.8755,-17.4625 -1.7126,-3.34698 -7.3671,-14.47933 -12.5657,-24.73854 -5.1986,-10.25922 -11.2683,-22.22501 -13.4882,-26.59063 -2.22,-4.36563 -6.0009,-11.80703 -8.4021,-16.53646 -2.4012,-4.72943 -6.5172,-12.82568 -9.1466,-17.99167 -2.6295,-5.16599 -7.4964,-14.75171 -10.8154,-21.30158 -17.0038,-33.55625 -20.0746,-39.54771 -20.2703,-39.55004 -0.1171,-0.003 -6.4275,4.18846 -14.023,9.31082 -13.7874,9.29814 -31.0584,20.93973 -53.436,36.01868 -6.5145,4.38983 -17.2897,11.65431 -23.9447,16.14331 -6.6551,4.489 -16.9221,11.40971 -22.8157,15.37933 -14.0653,9.4737 -32.1326,21.64951 -57.8836,39.00853 l -20.9623,14.13092 v 1.74408 c 0,0.95925 0.075,2.52156 0.1652,3.47178 l 0.1632,1.72773 2.15,1.11908 c 1.1825,0.61551 5.067,2.64372 8.6323,4.50716 3.5652,1.86343 8.6254,4.49707 11.2448,5.8525 2.6193,1.35541 5.3578,2.79077 6.0854,3.18966 0.7276,0.39886 3.7041,1.94836 6.6146,3.44331 2.9104,1.49495 5.4107,2.80255 5.5562,2.90579 0.1455,0.10321 2.6458,1.41316 5.5563,2.91097 2.9104,1.49781 7.3752,3.82003 9.9218,5.16049 2.5467,1.34046 6.4162,3.36261 8.599,4.49371 2.1828,1.13106 4.9212,2.5613 6.0854,3.1783 1.1642,0.61701 3.7836,1.98597 5.8208,3.0421 2.0373,1.05614 6.2641,3.25917 9.3928,4.89559 3.1287,1.63642 8.4865,4.43391 11.9062,6.21665 3.4197,1.78274 7.5274,3.92782 9.1281,4.76687 1.6008,0.83904 9.8161,5.1236 18.2563,9.52121 8.4402,4.39764 17.9057,9.33839 21.0344,10.97947 6.0645,3.18095 33.2872,17.38178 39.6875,20.70312 2.11,1.09498 4.6698,2.43681 5.6885,2.98183 1.0186,0.54499 3.7571,1.97313 6.0854,3.1736 2.3283,1.20049 5.1858,2.68853 6.35,3.30681 1.1642,0.61826 3.6645,1.9289 5.5563,2.91256 1.8917,0.98364 4.6897,2.442 6.2177,3.24075 6.3295,3.30891 8.772,4.58298 12.0385,6.27976 1.8918,0.98263 4.6302,2.41167 6.0854,3.17563 1.4552,0.76393 4.0448,2.11828 5.7547,3.00966 1.7099,0.89138 4.4483,2.32132 6.0854,3.17762 1.6371,0.8563 7.1438,3.72766 12.237,6.38083 5.0932,2.65316 10.5701,5.50915 12.1708,6.34666 3.195,1.67164 8.9896,4.69675 26.9875,14.08909 35.7892,18.67681 44.8858,23.42957 51.8584,27.09463 7.3974,3.88843 8.0698,4.21622 8.0698,3.93444 z m 32.0146,-7.01707 c 4.0019,-2.07582 9.7764,-5.08318 12.8323,-6.68301 3.056,-1.59983 6.866,-3.59253 8.4667,-4.42825 1.6007,-0.83568 5.5298,-2.89009 8.7312,-4.56536 3.2015,-1.67526 10.1071,-5.2778 15.3459,-8.00565 5.2387,-2.72786 11.8467,-6.17763 14.6843,-7.66615 2.8377,-1.48852 8.1955,-4.2877 11.9063,-6.2204 3.7108,-1.93271 9.0686,-4.73001 11.9062,-6.21621 2.8377,-1.48621 7.0644,-3.68763 9.3928,-4.89201 2.3283,-1.20441 5.0667,-2.6375 6.0854,-3.18466 1.0186,-0.54718 4.7691,-2.51155 8.3343,-4.3653 3.5653,-1.85375 10.2923,-5.36266 14.949,-7.79757 4.6567,-2.43488 11.5028,-6.0089 15.2135,-7.94221 6.1602,-3.20947 18.6513,-9.73359 26.5907,-13.88837 2.8072,-1.46905 22.0611,-11.51732 30.2948,-15.81029 1.6735,-0.87257 4.2333,-2.21324 5.6885,-2.97934 3.358,-1.76779 19.4208,-10.14352 24.474,-12.76157 2.11,-1.09323 4.6699,-2.43475 5.6885,-2.98114 1.6405,-0.87998 13.9224,-7.28877 23.9448,-12.49466 1.9645,-1.02042 4.4053,-2.30108 5.424,-2.84588 1.0186,-0.54483 3.638,-1.91577 5.8208,-3.04652 2.1828,-1.13078 6.2905,-3.27274 9.1281,-4.75991 2.8377,-1.48717 6.9453,-3.62913 9.1281,-4.7599 2.1829,-1.13075 4.8022,-2.50365 5.8209,-3.05086 1.0186,-0.54721 4.8882,-2.57114 8.5989,-4.49763 3.7108,-1.92648 7.6994,-4.00529 8.8636,-4.61957 1.1641,-0.61428 4.3193,-2.26071 7.0114,-3.65876 2.6922,-1.39804 6.6808,-3.48655 8.8636,-4.64114 l 3.9687,-2.09926 0.3096,-4.59269 c 0.1704,-2.52598 0.3187,-5.3666 0.3298,-6.31248 l 0.02,-1.71979 -1.5204,-1.18729 c -1.9107,-1.49217 -42.3552,-31.79099 -48.3824,-36.24549 -2.4569,-1.81583 -6.9674,-5.15752 -10.0234,-7.42595 -5.458,-4.05157 -14.4008,-10.67404 -23.8125,-17.63411 -2.6193,-1.9371 -6.4293,-4.75538 -8.4666,-6.26293 -4.5808,-3.38963 -67.6101,-49.88896 -81.7123,-60.2825 -1.916,-1.41211 -3.6026,-2.57263 -3.7481,-2.57898 -0.1456,-0.006 -9.0416,17.52013 -19.769,38.94767 -10.7274,21.42752 -34.221,68.30807 -52.2079,104.17895 -78.8167,157.18278 -88.7575,177.03738 -88.7575,177.27455 0,0.13798 0.7441,-0.1483 1.6536,-0.63614 0.9095,-0.48786 4.9279,-2.58543 8.9297,-4.66124 z m 7.2018,-59.3308 c 15.8208,-31.61441 41.0406,-81.94808 56.0441,-111.85262 36.4016,-72.55436 75.925,-151.53357 75.925,-151.72021 0,-0.0828 -72.9357,-0.15062 -162.0794,-0.15062 -89.1436,0 -162.0381,0.0893 -161.9877,0.19843 0.3995,0.86503 7.9838,15.8454 9.0753,17.92553 0.7637,1.4552 4.1601,8.12271 7.5475,14.81666 3.3875,6.69396 9.6375,19.01693 13.8889,27.38438 4.2514,8.36744 10.4407,20.57135 13.7541,27.11979 3.3134,6.54844 6.9469,13.69219 8.0745,15.875 1.1276,2.18281 4.9376,9.68375 8.4667,16.66875 3.5291,6.985 7.5769,14.96219 8.995,17.72708 1.4182,2.7649 5.109,10.02771 8.2019,16.13959 5.6342,11.13367 10.5129,20.73923 17.0667,33.60208 1.9277,3.78354 6.154,12.11792 9.3915,18.52084 3.2376,6.40291 6.9284,13.66573 8.2017,16.13958 1.2734,2.47386 4.9665,9.73667 8.2069,16.13959 3.2404,6.40292 9.3698,18.48776 13.6209,26.85521 4.2512,8.36745 10.5611,20.80948 14.0221,27.64896 3.461,6.83948 6.9173,13.62604 7.6806,15.08125 0.7634,1.45521 2.5931,5.05685 4.066,8.00364 1.4729,2.9468 2.7668,5.35782 2.8754,5.35782 0.1085,0 13.1416,-25.86633 28.9623,-57.48073 z m -494.6716,-31.08119 c 6.2437,-6.94458 14.5668,-16.1961 18.4959,-20.55898 3.929,-4.36287 8.1976,-9.12029 9.4857,-10.57206 1.2881,-1.45174 2.8487,-3.18371 3.4681,-3.84882 0.6193,-0.6651 6.4755,-7.1624 13.0137,-14.43844 6.5383,-7.27604 17.2371,-19.18229 23.7753,-26.45833 6.5381,-7.27605 15.0466,-16.73159 18.9077,-21.01234 3.8612,-4.28075 7.7347,-8.60978 8.6078,-9.62007 1.2783,-1.47912 2.6954,-2.58746 7.276,-5.69079 32.0421,-21.70803 45.7818,-31.13185 89.9584,-61.7007 38.7493,-26.81333 45.833,-31.6915 65.7057,-45.24798 l 11.0539,-7.54063 -1.272,-0.0923 c -1.2555,-0.0911 -22.0022,0.26131 -44.6637,0.75875 -6.4029,0.14055 -18.1901,0.37296 -26.1937,0.51647 -8.0037,0.14351 -17.4096,0.32591 -20.9021,0.40536 -11.6948,0.26599 -31.0926,0.65961 -45.376,0.92078 -16.4356,0.30054 -24.26790003,0.46125 -39.423,0.80894 -6.0391,0.13853 -12.1849,0.25236 -13.6574,0.25291 h -2.6771 l -2.2366,3.24115 c -1.2302,1.78263 -2.7744,4.01505 -3.4317,4.96094 -0.6574,0.94588 -6.1765,8.92307 -12.2648,17.72708 -32.7006,47.28681 -63.2134,91.40642 -67.1121,97.04001 -1.9402,2.80353 -4.6634,6.73259 -6.0516,8.73125 -1.3883,1.99867 -3.4661,5.00317 -4.6174,6.67666 -1.1513,1.67349 -2.6715,3.87614 -3.3782,4.89479 -0.7067,1.01865 -2.4984,3.61169 -3.9816,5.76233 -1.4832,2.15062 -5.0233,7.2703 -7.867,11.37709 -21.3929,30.89526 -28.9609,41.89206 -28.9609,42.08193 0,0.19772 52.4349,33.19672 52.8094,33.2346 0.087,0.009 5.2657,-5.666 11.5093,-12.61057 z m -21.5885,-105.39152 c 18.9021,-27.38321 25.9651,-37.60546 30.4288,-44.03928 2.0192,-2.91042 9.1459,-13.20933 15.8372,-22.88646 6.6912,-9.67714 15.2541,-22.05964 19.0287,-27.51667 3.7746,-5.45703 10.7656,-15.57734 15.5356,-22.48958 4.7699,-6.91224 8.8835,-12.79187 9.1412,-13.06582 0.4383,-0.46598 1.1993,-0.51159 11.8032,-0.70776 14.0888,-0.26064 23.9383,-0.46027 38.719,-0.78483 6.3302,-0.13899 18.1769,-0.37486 26.3261,-0.52419 8.1492,-0.14931 23.2701,-0.44633 33.6021,-0.66008 10.3319,-0.21374 25.1552,-0.50967 32.9406,-0.65765 28.5604,-0.54277 40.7186,-0.78984 45.2437,-0.9193 2.5467,-0.0729 9.6904,-0.2086 15.875,-0.30162 6.1847,-0.093 12.1653,-0.24419 13.2903,-0.33592 l 2.0454,-0.16679 -3.1298,-5.29167 c -1.7214,-2.91041 -5.5495,-9.399316 -8.5068,-14.419786 -2.9574,-5.02047 -7.871,-13.35484 -10.9191,-18.52083 -3.0481,-5.16599 -7.3323,-12.42881 -9.5205,-16.13959 -2.1882,-3.71078 -4.6297,-7.8482 -5.4255,-9.19427 l -1.4471,-2.4474 -86.6846,0.008 -86.6846,0.008 -4.4163,6.40784 c -5.7415,8.33041 -32.9519,47.681406 -64.2511,92.918146 -7.3532,10.62765 -19.2552,27.83597 -26.4488,38.24071 -18.2685,26.42338 -35.1517,50.83114 -40.4017,58.40793 -2.4457,3.52949 -4.473,6.50605 -4.5051,6.61459 -0.032,0.1085 4.9528,3.65008 11.0777,7.87019 6.1249,4.2201 12.3425,8.5294 13.8168,9.57619 1.4744,1.0468 2.7997,1.90411 2.9452,1.90514 0.1455,0 6.7535,-9.39851 14.6844,-20.88788 z m 11.3312,-99.24719 c 8.8777,-12.82679 18.444,-26.65807 29.6792,-42.91161 6.9122,-9.999626 13.7035,-19.814586 15.0918,-21.811026 2.4797,-3.56608 5.744,-8.29368 7.3477,-10.64133 0.4473,-0.65484 3.9059,-5.65547 7.6859,-11.1125 7.8786,-11.37431 12.6208,-18.22583 16.6647,-24.07709 l 2.8342,-4.10104 86.2087,-0.0665 c 81.0004,-0.0625 86.1983,-0.0937 86.0362,-0.51618 -0.095,-0.2473 -1.9705,-3.49157 -4.168,-7.2095 -9.5475,-16.15355 -21.6148,-36.62164 -22.7956,-38.66541 l -0.7014,-1.21386 v -27.69187 -27.691854 l -57.4808,0.0145 -57.4807,0.0146 -7.4083,10.75722 c -4.0746,5.91646 -15.7293,22.786984 -25.8994,37.490034 -33.5133,48.45082 -55.733,80.58053 -61.761,89.30699 -3.267,4.72943 -6.7669,9.78958 -7.7775,11.24479 -1.4234,2.0497 -21.1354,30.541116 -35.5526,51.387266 l -1.6871,2.43935 2.5742,1.81722 c 1.4158,0.99946 5.908,4.14099 9.9825,6.98121 4.0746,2.8402 9.1943,6.41411 11.3771,7.94205 2.1828,1.52792 4.0293,2.74651 4.1033,2.70798 0.074,-0.0385 1.4811,-2.01554 3.1269,-4.3934 z m 778.7146,-0.19571 c 0,-0.24935 0.4477,-1.20171 7.4128,-15.7693 2.3655,-4.94771 4.7466,-9.94833 5.2912,-11.1125 0.5446,-1.16417 1.9064,-4.02167 3.0263,-6.35 4.0317,-8.38256 4.6426,-9.80808 4.6426,-10.8322 0,-0.54954 0.3006,-5.064146 0.668,-10.032446 1.3756,-18.60137 1.9702,-26.77112 2.6602,-36.54994 l 0.7095,-10.05416 -4.9605,-20.24063 c -5.7793,-23.58149 -6.0979,-24.88451 -9.6709,-39.55521 -1.4886,-6.11187 -2.8393,-11.19997 -3.0017,-11.30689 -0.1623,-0.10692 -1.0951,-0.19621 -2.0728,-0.19844 l -1.7776,-0.004 -1.0202,1.38907 c -0.5611,0.76398 -4.7723,6.8064 -9.3582,13.4276 -4.5859,6.6212 -12.9607,18.70604 -18.6108,26.85521 -5.6501,8.14917 -11.8393,17.07886 -13.7539,19.84375 -1.9145,2.7649 -6.9911,10.08724 -11.2813,16.27188 -4.2902,6.18463 -8.174,11.79187 -8.6308,12.46055 l -0.8304,1.21576 7.5744,6.72174 c 4.166,3.69694 9.7252,8.63957 12.3538,10.98357 2.6286,2.344 8.2321,7.32446 12.4522,11.06768 4.2201,3.743216 7.8175,7.078496 7.9942,7.411766 0.1767,0.33325 2.0083,4.46106 4.0704,9.17295 2.062,4.71186 4.2453,9.69812 4.8518,11.08056 0.6064,1.38245 3.2396,7.4209 5.8514,13.41877 2.6119,5.99789 4.8977,10.90922 5.0796,10.91406 0.1819,0.005 0.3307,-0.0983 0.3307,-0.22916 z m -139.4354,-41.68757 c 1.6735,-0.49546 2.8641,-0.91006 2.6458,-0.92133 -0.2182,-0.0114 -15.875,-0.0492 -34.7927,-0.0842 l -34.3958,-0.0637 -21.4312,-3.65496 c -20.7191,-3.533476 -46.9274,-7.955956 -67.2042,-11.340246 l -9.7896,-1.63391 -1.9844,-1.75847 c -15.4662,-13.70555 -37.7873,-33.50509 -45.4988,-40.35896 -3.269,-2.90545 -7.0251,-6.23512 -8.3468,-7.39929 -3.4659,-3.05263 -11.9849,-10.61683 -13.2262,-11.74387 -0.5821,-0.52848 -3.6182,-3.21948 -6.7469,-5.98001 -3.1287,-2.76053 -6.1648,-5.4514 -6.7469,-5.97969 -0.5821,-0.52832 -3.8563,-3.43657 -7.276,-6.46282 l -6.2177,-5.50222 -3.9909,-10.21154 c -2.195,-5.61634 -6.7622,-17.35527 -10.1493,-26.08652 -3.3872,-8.73125 -9.463,-24.387974 -13.5018,-34.792714 -4.0388,-10.40474 -7.4964,-19.34712 -7.6834,-19.87198 -0.3723,-1.04508 -1.015,1.51059 8.3101,-33.04469 1.669,-6.18463 4.0546,-15.02502 5.3014,-19.64531 1.2468,-4.62029 3.2876,-12.18075 4.535,-16.80104 6.3967,-23.69328 8.7323,-32.36217 9.8478,-36.55071 l 1.2256,-4.60229 8.0798,-7.17804 c 4.4439,-3.94793 16.0552,-14.25941 25.8029,-22.91438 9.7476,-8.65499 20.1061,-17.86255 23.0187,-20.46121 l 5.2957,-4.72485 10.0542,0.1596 c 5.5298,0.0878 19.8173,0.22048 31.75,0.29488 11.9327,0.0744 25.0593,0.20524 29.1703,0.2907 6.1703,0.12827 7.4745,0.0931 7.4745,-0.20135 0,-0.19619 -2.727,-6.60699 -6.06,-14.24625 l -6.0601,-13.88954 -3.7957,0.0673 c -2.0876,0.037 -7.4866,0.24604 -11.9978,0.46456 -8.108,0.39272 -32.9435,1.58197 -49.6093,2.37556 -62.1672,2.96021 -61.9872,2.94997 -64.5584,3.67588 -15.6328,4.41362 -22.3031,6.29042 -38.6291,10.86903 -5.0205,1.40798 -9.2038,2.6411 -9.2963,2.74029 -0.093,0.0992 -1.3473,1.72816 -2.7885,3.61993 -1.4411,1.89177 -7.1943,9.39271 -12.7849,16.66875 -5.5906,7.27604 -12.9987,16.9201 -16.4625,21.43125 -3.4638,4.51114 -8.3115,10.82146 -10.7728,14.02292 -9.4964,12.35239 -12.315,16.02192 -20.1263,26.20306 -4.4384,5.78493 -11.4286,14.87644 -15.5338,20.20335 l -7.4639,9.68525 -0.011,65.68697 -0.011,65.686974 3.0794,5.22137 c 1.6938,2.87176 5.0102,8.49559 7.3698,12.49741005 2.3596,4.00181995 6.8904,11.68134995 10.0684,17.06561995 3.1779,5.38428 6.5405,11.09928 7.4723,12.70001 0.9317,1.60072 1.8613,3.09837 2.0656,3.32811 0.2044,0.22974 0.3715,0.50276 0.3715,0.60672 0,0.10395 3.3167,5.80958 7.3704,12.67917 7.1404,12.10056 10.3602,17.55823 16.5781,28.10058 1.6307,2.7649 4.3002,7.28927 5.932,10.05417 1.6319,2.76489 5.2987,8.98591 8.1486,13.82448 l 5.1816,8.797386 162.8754,-0.007 162.8754,-0.007 3.0427,-0.90083 z m 48.5899,-17.671836 c 1.4471,-2.07367 5.0014,-7.14351 7.8984,-11.26633 2.897,-4.12281 5.2903,-7.65333 5.3185,-7.84558 0.028,-0.19227 2.1872,-3.42704 4.7978,-7.18836 2.6105,-3.76134 8.4191,-12.13707 12.9079,-18.61275 26.214,-37.81692 36.2839,-52.34308 42.9744,-61.99182 4.117,-5.93725 7.4417,-10.834 7.3883,-10.88173 -0.085,-0.0757 -68.7551,-16.85126 -123.3929,-30.143754 -3.2015,-0.77885 -8.4174,-2.0552 -11.5911,-2.8363 -5.3043,-1.30556 -5.8229,-1.38878 -6.4235,-1.03071 -0.3593,0.21423 -1.8861,1.18697 -3.393,2.16161 -18.1951,11.768864 -48.8112,24.112624 -57.3019,23.102954 -5.2475,-0.624 -30.7468,-13.34718 -50.5395,-25.217264 -3.3783,-2.02604 -13.342,-8.3158 -13.7139,-8.65706 -0.284,-0.26067 2.2078,-1.76265 12.8323,-7.73499 23.4252,-13.16789 32.0539,-18.02408 41.5751,-23.39808 l 9.3404,-5.27193 13.1492,4.66135 c 7.2321,2.56373 14.932,5.30177 17.1109,6.08454 2.1789,0.7828 4.0092,1.37571 4.0673,1.3176 0.058,-0.0581 -7.3738,-10.38002 -16.5154,-22.93763 -9.1416,-12.5576 -18.1286,-24.9156 -19.9711,-27.46221 -3.2013,-4.42476 -3.5267,-5.00002 -7.3328,-12.96459 -2.1906,-4.5839 -5.792,-12.08484 -8.0031,-16.66875 -3.5521,-7.36391 -6.1701,-12.81033 -11.637,-24.20937 -0.8375,-1.74625 -3.1586,-6.56829 -5.1579,-10.71563 -1.9994,-4.14734 -5.036,-10.45766 -6.7479,-14.02292 -1.712,-3.56526 -4.0064,-8.34152 -5.0986,-10.61389 l -1.9859,-4.1316 -23.1146,-0.16843 c -12.7131,-0.0927 -30.5029,-0.2431 -39.5329,-0.33433 l -16.4183,-0.16587 -17.9776,15.9647 c -9.8876,8.78056 -22.2042,19.70809 -27.3702,24.2834 -5.166,4.57528 -9.5972,8.50911 -9.8471,8.74184 -0.4401,0.40991 -1.3016,3.41463 -6.1521,21.45752 -1.115,4.14734 -2.9105,10.81484 -3.9901,14.81667 -1.0795,4.00182 -3.5046,12.99104 -5.3891,19.97604 -1.8844,6.985 -5.452,20.21811 -7.9279,29.4069 l -4.5017,16.70691 3.8347,9.88372 c 2.1091,5.43605 4.8924,12.62216 6.1851,15.96914 1.2928,3.34698 6.2367,16.086674 10.9865,28.310424 4.7498,12.22375 9.3597,24.10409 10.2441,26.40078 l 1.6082,4.17576 3.4663,3.10029 c 1.9065,1.70513005 3.9429,3.52829 4.5252,4.05145 0.5824,0.52317 3.7973,3.3754 7.1443,6.33828 3.347,2.96289 8.6453,7.659 11.774,10.43583 3.1287,2.7768 11.5226,10.22662 18.6531,16.55511 14.0907,12.5058 23.195,20.57914 33.8519,30.01857 3.7754,3.3441 7.935,7.04903 9.2436,8.2332 l 2.3791,2.15299 5.7054,0.93922 c 3.138,0.51658 12.8492,2.14181 21.5804,3.61164 29.0146,4.88429 48.8464,8.22881 58.0761,9.79419 l 9.1281,1.54813 55.3247,0.0206 55.3247,0.0206 2.6311,-3.77032 z m -657.1102,-67.86562 c 2.0751,-3.01956 4.24,-6.14495 4.8109,-6.94532 0.5709,-0.80036 7.7241,-11.12835 15.8961,-22.95109 36.3394,-52.573754 41.5572,-60.119404 46.0157,-66.544224 l 4.7279,-6.81302 h 60.8369 60.837 v -35.44819 -35.44819 l 6.6626,-8.67109 c 5.9752,-7.77655 15.4433,-20.10627 19.5782,-25.49554 0.8472,-1.10426 1.5404,-2.08653 1.5404,-2.18281 0,-0.0963 -24.3831,-0.17502 -54.1847,-0.17502 h -54.1846 l -4.3477,6.28385 c -2.3912,3.45612 -6.324,9.14136 -8.7396,12.63386 -2.4156,3.4925 -10.4049,15.04156 -17.754,25.66458 -7.3491,10.62302 -19.0001,27.47037 -25.8912,37.43854 -6.891,9.96818 -17.309,25.02959 -23.151,33.4698 -5.842,8.44021 -16.7955,24.275524 -24.3411,35.189584 -7.5456,10.91407 -18.6392,26.95335 -24.6523,35.64285 -6.0131,8.68947 -10.9329,15.85211 -10.9329,15.91696 0,0.10641 2.9845,1.88105 17.3302,10.3047 2.4738,1.45262 4.8551,2.85933 5.2916,3.12605 0.4366,0.2667 0.8129,0.48691 0.8363,0.48938 0.023,0.003 1.7402,-2.46611 3.8153,-5.48566 z m 756.4224,-59.23691 c 0,-0.0928 3.928,-14.836224 8.7289,-32.763254 l 8.7289,-32.5946 -0.8939,-2.62477 c -0.8351,-2.45179 -2.2878,-6.59072 -8.4896,-24.18829 -4.041,-11.46644 -6.5167,-18.50859 -24.8813,-70.77605 -0.9715,-2.76489 -4.3847,-12.46849 -7.585,-21.56354 -5.7889,-16.45155 -7.5844,-21.57008 -11.462,-32.67604 -1.9185,-5.4949 -2.0934,-5.87269 -3.1239,-6.74688 -0.6004,-0.50932 -3.2381,-2.75595 -5.8616,-4.99253 -4.5522,-3.88085 -10.0765,-8.57154 -18.2696,-15.51268 -2.0612,-1.74625 -6.824,-5.79437 -10.5839,-8.99583 -3.76,-3.20146 -8.8784,-7.54724 -11.3742,-9.65729 -2.4958,-2.11005 -6.3735,-5.39936 -8.6171,-7.30957 -6.0973,-5.19123 -11.1917,-9.52045 -16.647,-14.14648 -4.4978,-3.81415 -12.8361,-10.90445 -18.7025,-15.90336 -1.7487,-1.49003 -2.7031,-2.11037 -3.5521,-2.30867 -0.6385,-0.14912 -5.6854,-1.16203 -11.2151,-2.25087 -18.4281,-3.6286 -62.3982,-12.33082 -65.6167,-12.98638 -1.7463,-0.35568 -14.9622,-2.97686 -29.3688,-5.82483 -37.7434,-7.46136 -59.1648,-11.70686 -62.0448,-12.29667 -1.3824,-0.28311 -13.1101,-2.60313 -26.0614,-5.15557 -12.9514,-2.55243 -24.0203,-4.75183 -24.5977,-4.88757 -0.5774,-0.13573 -1.0992,-0.19737 -1.1596,-0.13705 -0.1242,0.1243 2.7594,3.74751 17.7902,22.35285 16.5796,20.52254 16.6541,20.61493 27.1262,33.60208 23.2401,28.82178 27.7127,34.36229 29.1732,36.13875 0.8479,1.03135 1.5416,2.01922 1.5416,2.19525 0,0.25937 10.3732,23.50196 13.9476,31.25142 0.5034,1.09141 1.1921,2.63922 1.5306,3.43959 0.3384,0.80036 1.0341,2.36056 1.546,3.4671 0.512,1.10654 1.94,4.26169 3.1736,7.01145 2.0414,4.55086 5.3557,11.54687 10.8917,22.99124 1.1263,2.32833 2.6125,5.42396 3.3027,6.87917 0.6902,1.4552 3.6072,7.52739 6.4822,13.49375 2.875,5.96635 5.9134,12.27666 6.752,14.02291 5.6482,11.76221 8.2773,17.23988 11.1956,23.32551 l 3.319,6.92132 19.7957,27.19387 c 10.8876,14.95664 24.2605,33.32301 29.7175,40.81418 l 9.9219,13.6203 2.9104,0.70805 c 4.0456,0.98423 13.7434,3.35307 22.225,5.42883 3.9291,0.9616 12.2634,2.99439 18.5208,4.51736 13.9433,3.39358 12.5889,3.06263 66.5427,16.258784 24.2293,5.92603 44.3211,10.78789 44.6485,10.80413 0.3274,0.0161 0.5953,-0.0464 0.5953,-0.13912 z M 455.27138,-51.46802 c 10.905,-2.79557 30.4977,-11.53647 42.7887,-19.0893 1.3414,-0.82428 2.4427,-1.59215 2.4474,-1.70643 0,-0.11424 -0.7543,-1.24708 -1.6867,-2.5174 l -1.6953,-2.30968 -4.5885,-1.62634 c -2.5238,-0.89451 -12.9876,-4.61346 -23.2529,-8.26437 -10.2653,-3.6509 -18.8149,-6.638 -18.999,-6.638 -0.1841,0 -5.656,2.99879 -12.1597,6.66396 -6.5038,3.66516 -15.3281,8.63806 -19.6097,11.0509 -4.2815,2.41282 -7.8195,4.50398 -7.8621,4.64699 -0.085,0.28585 1.3985,1.16374 9.2968,5.50132 10.0481,5.51817 21.4401,11.19243 28.575,14.23292 2.6529,1.130514 2.5556,1.129714 6.746,0.0554 z M 6.95318,-199.56114 c 2.1733,-0.49612 5.6183,-1.28262 7.6555,-1.74781 2.0373,-0.46517 3.8364,-0.95295 3.9979,-1.08398 0.1728,-0.14017 26.0915,-0.21031 62.9708,-0.17044 l 62.6772,0.0678 1.6961,-2.24896 c 0.9329,-1.23693 3.7591,-4.92787 6.2804,-8.20209 5.8508,-7.59801 25.0621,-32.61471 33.2278,-43.26869 3.4535,-4.50601 6.2897,-8.30566 6.3024,-8.44364 0.023,-0.24908 -1.5109,-0.80974 -22.3713,-8.17616 -5.9664,-2.1069 -13.9435,-4.92527 -17.7271,-6.26306 -3.7835,-1.33776 -9.8557,-3.48027 -13.4937,-4.76115 -10.8934,-3.83529 -28.2801,-9.99003 -28.7375,-10.1728 -0.427,-0.17058 -1.0597,0.38004 -20.3427,17.70213 -10.7168,9.62694 -15.9207,14.29708 -29.5011,26.4749 -7.1305,6.39408 -15.8816,14.24503 -19.4469,17.44654 -3.5652,3.20151 -8.6254,7.74544 -11.2448,10.09762 -10.4454,9.37987 -16.4153,14.72292 -21.1051,18.88931 -4.2606,3.785 -5.2607,4.7625 -4.8728,4.7625 0.046,0 1.8617,-0.40589 4.0349,-0.90201 z m 202.8706,-75.93315 c 2.791,-0.78592 7.2772,-2.04552 9.9693,-2.79913 2.6922,-0.75361 7.157,-2.0097 9.9219,-2.7913 2.7649,-0.78163 9.2538,-2.60228 14.4198,-4.04593 l 9.3927,-2.6248 5.6885,-0.29943 c 3.1287,-0.16468 9.3795,-0.47686 13.8907,-0.69371 4.5111,-0.21688 11.7144,-0.57354 16.0073,-0.79256 4.2928,-0.21905 13.8774,-0.69702 21.2989,-1.06214 26.5149,-1.3045 54.539,-2.69836 59.3328,-2.95106 1.7827,-0.094 3.2412,-0.24535 3.2412,-0.33644 0,-0.19069 -4.2302,-5.46714 -26.4238,-32.95897 -21.7671,-26.96366 -30.5356,-37.82626 -43.4763,-53.8598 l -11.0114,-13.64314 -13.1885,-4.05372 c -7.2537,-2.22956 -14.0815,-4.33088 -15.1729,-4.66961 -4.7432,-1.47211 -37.563,-11.57168 -38.7615,-11.928 -1.6453,-0.48915 -16.1289,-4.94103 -25.6646,-7.8886 -3.929,-1.21452 -12.442,-3.83296 -18.9177,-5.81877 -6.4757,-1.98581 -14.81,-4.54793 -18.5208,-5.6936 -3.7108,-1.14568 -19.942,-6.13826 -36.0694,-11.09463 l -29.3225,-9.01159 h -73.667 -73.6669 l -33.3664,16.68359 c -18.3515,9.17597 -33.3234,16.72575 -33.2709,16.77727 0.1372,0.13475 14.5406,7.30916 18.6162,9.27284 1.8918,0.91148 9.869,4.84037 17.7271,8.73086 7.8581,3.89049 17.3831,8.59219 21.1666,10.44823 8.3692,4.10551 21.7521,10.70195 37.3063,18.38826 6.4029,3.16407 13.9039,6.85503 16.6687,8.20213 2.7649,1.34708 11.3374,5.57403 19.05,9.39321 7.7127,3.81919 16.7614,8.28382 20.1084,9.92143 3.347,1.63761 11.4432,5.62621 17.9917,8.86357 6.5484,3.23736 15.5971,7.70228 20.1083,9.92203 18.834,9.26746 25.9721,12.78374 36.5125,17.98609 6.4509,3.18397 12.4999,5.98297 14.4198,6.67242 1.819,0.6532 5.4504,1.93746 8.0698,2.8539 5.244,1.83475 48.736,17.2089 64.426,22.77425 5.457,1.93561 9.96,3.52753 10.0067,3.53753 0.047,0.0101 2.3683,-0.62479 5.1594,-1.41068 z m 306.3027,-83.13354 c 0,-0.0882 -0.34,-0.5942 -0.7555,-1.12448 -0.4155,-0.53025 -5.3928,-7.33396 -11.0607,-15.11932 -17.4886,-24.0225 -28.0913,-38.57526 -31.3503,-43.03025 l -3.1227,-4.26879 -10.3914,-5.22442 c -5.7152,-2.87343 -13.4869,-6.8001 -17.2705,-8.72594 -3.7835,-1.92583 -13.9038,-7.04582 -22.4896,-11.37775 -8.5857,-4.33193 -19.6585,-9.92823 -24.6062,-12.43623 -4.9477,-2.508 -15.7317,-7.96753 -23.9643,-12.13229 l -14.9685,-7.57229 -6.1982,-0.53269 c -3.409,-0.29298 -14.2944,-1.18828 -24.1898,-1.98956 -9.8955,-0.80127 -21.6231,-1.75644 -26.0615,-2.12259 -30.2911,-2.49891 -46.6795,-3.80426 -46.7593,-3.72441 -0.1013,0.10127 2.897,2.8228 24.6666,22.38942 8.0036,7.19373 15.0879,13.57149 15.7427,14.17279 0.6548,0.6013 7.3223,6.60166 14.8167,13.33412 7.4943,6.73247 15.1738,13.63781 17.0656,15.3452 2.9076,2.62424 27.0731,24.36452 35.3606,31.81199 l 2.5649,2.30487 11.9935,2.38292 c 6.5964,1.31062 17.4704,3.46573 24.1643,4.78912 14.6322,2.89282 43.5025,8.61573 50.6677,10.04379 2.8377,0.56555 14.5058,2.87888 25.9292,5.14073 11.4234,2.26184 24.8774,4.93606 29.8979,5.9427 9.093,1.82321 10.3188,2.02792 10.3188,1.72336 z m 346.6061,1306.00455 c 17.1653,-2.9537 23.7628,-4.1165 36.7751,-6.4817 15.5515,-2.8267 17.3658,-3.1622 25.0031,-4.6234 2.7649,-0.529 5.9201,-1.1255 7.0115,-1.3255 5.4203,-0.9933 44.2025,-8.7311 50.8655,-10.1486 l 3.6373,-0.7738 1.9126,-1.6815 c 12.13842,-10.6719 36.00622,-32.5846 46.50752,-42.6979 1.528,-1.4715 5.6952,-5.4616 9.2604,-8.867 8.3924,-8.0159 41.3989,-41.01919 49.737,-49.73224 3.5512,-3.71078 7.7165,-8.05656 9.2564,-9.65729 3.3064,-3.43723 13.627,-14.43419 18.1277,-19.31585 1.7435,-1.89109 3.8996,-4.21222 4.7913,-5.15811 0.8918,-0.94588 3.6205,-3.92245 6.064,-6.61458 2.4434,-2.69214 4.9948,-5.49011 5.6697,-6.21771 0.6748,-0.72761 3.6572,-4.00182 6.6274,-7.27604 2.9703,-3.27422 6.7084,-7.38188 8.307,-9.12813 6.2014,-6.77415 8.0157,-8.76377 16.165,-17.72708 4.6307,-5.09323 11.3386,-12.45688 14.9065,-16.36369 l 6.487,-7.10324 -0.3164,-108.65197 c -0.3834,-131.6861 -0.7629,-255.45914 -0.9625,-313.96862 -0.081,-23.86542 -0.2634,-85.24214 -0.4044,-136.39272 -0.3039,-110.245596 -0.7141,-247.6028 -0.9201,-308.1073 -0.081,-23.86542 -0.2691,-83.09515 -0.4176,-131.62164 -0.1484,-48.52646 -0.298,-88.25807 -0.3324,-88.29241 -0.073,-0.073 -2.1418,-0.31279 -12.2137,-1.41542 -22.5652,-2.47033 -38.2835,-5.8339 -58.1355,-12.4405 -65.5973,-21.83027 -122.64162,-69.74268 -157.49332,-132.28108 -13.4945,-24.21485 -23.7312,-51.24841 -29.6058,-78.18438 -1.1923,-5.46696 -8.1039,-38.59074 -8.1039,-38.83783 0,-0.10352 -267.7121,-0.18822 -594.9157,-0.18822 -327.2036,0 -594.9156,0.0563 -594.9156,0.12513 0,0.0688 -0.4235,2.00359 -0.941,4.29948 -0.5176,2.2959 -1.596,7.09138 -2.3965,10.65664 -18.4043,81.97155 -35.5463,117.88269 -76.7257,160.73439 -17.918,18.64555 -35.5438,33.05517 -56.0649,45.83446 -13.8486,8.62408 -31.57,17.28768 -47.0959,23.02409 -15.7649,5.82478 -26.6637,8.82629 -47.3604,13.04298 -25.9189,5.28069 -32.5309,6.6493 -32.7422,6.77722 -0.1091,0.0661 -0.1992,16.39496 -0.2002,36.28634 0,19.8914 -0.1184,69.50366 -0.261,110.2495 -0.1425,40.74583 -0.3772,114.56459 -0.5216,164.04167 -0.1444,49.477094 -0.3282,111.508654 -0.4084,137.847924 -0.08,26.339276 -0.2589,86.942086 -0.3968,134.672916 -0.138,47.73084 -0.3174,105.1785 -0.3986,127.66147 -0.081,22.48297 -0.3171,104.87422 -0.5241,183.09167 -0.2071,78.21745 -0.4451,155.13183 -0.5289,170.92084 l -0.1524,28.7073 23.3633,23.41562 c 12.8499,12.8786 40.4366,40.56063 61.3037,61.51563 20.8672,20.955 41.3439,41.43018 45.5038,45.50048 4.1599,4.0703 10.0637,9.8535 13.1197,12.8516 7.7649,7.6179 26.94,26.0772 34.312,33.0309 l 1.7682,1.6679 8.2859,1.9744 c 18.2238,4.3422 43.932,10.1697 62.3933,14.1431 23.2871,5.0121 57.15,11.9042 57.15,11.6318 0,-0.1017 -2.5897,-2.2606 -5.7547,-4.7975 -27.2734,-21.8604 -57.957,-48.2086 -81.8169,-70.2567 -0.8034,-0.7424 -2.3537,-2.1597 -3.4451,-3.1497 -2.4225,-2.1973 -8.6761,-8.00846 -11.3771,-10.57206 -1.0914,-1.03593 -4.3061,-4.07374 -7.1437,-6.75074 -10.2158,-9.63742 -20.7636,-19.93951 -35.3393,-34.51583 -12.9486,-12.94921 -19.7672,-19.90733 -33.9828,-34.67849 -1.8206,-1.89177 -6.4679,-6.7138 -10.3274,-10.71562 -3.8595,-4.00182 -8.7401,-9.06886 -10.8459,-11.26009 -7.7932,-8.10955 -21.0029,-21.81148 -36.7166,-38.0847 l -6.6426,-6.87917 -0.012,-506.5608 -0.012,-506.56081 10.7818,-3.53799 c 5.93,-1.9459 13.9369,-4.5712 17.7932,-5.83398 16.7597,-5.48809 26.5716,-9.45592 40.8781,-16.53066 14.1102,-6.97765 23.3498,-12.28037 36.3885,-20.88378 21.0459,-13.88695 38.9614,-28.53499 57.2882,-46.84004 9.3064,-9.29544 10.8238,-10.87621 15.8776,-16.54053 29.6791,-33.26498 52.0654,-70.35928 64.1097,-106.23021 1.026,-3.05594 4.1236,-12.75953 6.8833,-21.56354 2.7597,-8.80401 5.1449,-16.34023 5.3005,-16.74715 l 0.2828,-0.73985 36.0514,0.15611 c 39.5122,0.17109 237.4685,0.77648 389.9316,1.19248 87.4501,0.23862 163.8349,0.47416 301.0958,0.92849 58.7701,0.19453 207.4388,0.60285 291.0417,0.79935 35.2888,0.0829 64.5186,0.20576 64.9552,0.27292 0.7818,0.12028 0.835,0.23659 3.5337,7.7252 8.8153,24.46173 13.0497,35.99349 14.9846,40.80828 22.1985,55.23773 58.7711,101.6756 109.9369,139.59171 28.79572,21.33889 62.72022,40.15399 101.46772,56.27569 2.6194,1.08985 10.1799,4.15719 16.8011,6.81633 6.6212,2.65911 12.1873,4.94924 12.3692,5.08918 0.2644,0.20336 0.3289,100.78837 0.3212,501.40898 l -0.01,501.15462 -3.3639,3.72062 c -1.8501,2.04634 -6.3404,7.03869 -9.9785,11.09414 -3.638,4.05543 -8.8172,9.82885 -11.5093,12.82981 -27.4652,30.61575 -32.7968,36.48202 -43.7698,48.15856 -15.7683,16.77932 -39.4138,40.51342 -58.10102,58.31869 -39.996,38.10848 -79.8781,72.74428 -124.2157,107.87588 -5.029,3.9848 -16.7706,13.071 -17.5254,13.5618 -0.8096,0.5266 -1.1065,0.954 -0.6627,0.954 0.1103,0 2.6404,-0.4198 5.6224,-0.9329 z M -1090.3128,1435.927 c -120.7527,-0.5572 -171.3283,-1.7834 -185.9424,-4.5084 -3.2796,-0.6115 -4.8387,-1.1614 -5.1984,-1.8334 -0.365,-0.6822 0.8042,-2.1787 4.7551,-6.0862 16.0136,-15.8373 63.9073,-56.0996 122.1135,-102.6556 48.623,-38.891 82.914,-67.0029 109.3219,-89.6225 14.5968,-12.5029 23.6312,-20.8768 23.6312,-21.9037 0,-1.2895 -8.1083,-8.8858 -24.8708,-23.3 -17.775,-15.2848 -49.2813,-41.4092 -76.2,-63.1833 -3.4198,-2.7662 -7.4083,-5.9942 -8.8636,-7.1733 -4.0674,-3.2958 -12.5908,-10.1564 -22.3223,-17.9675 -37.6733,-30.2389 -73.4906,-59.8077 -95.5239,-78.8593 -2.5326,-2.1898 -5.0977,-4.3982 -5.7004,-4.9075 -7.1586,-6.05 -21.7717,-19.45548 -24.2727,-22.26688 -2.7588,-3.101 -2.7974,-3.5166 -0.41,-4.4098 6.0269,-2.255 26.0201,-3.493 69.1189,-4.2799 32.9555,-0.6016 88.8283,-0.7868 238.42508,-0.79 h 156.9333 l 0.1664,9.062 c 0.1585,8.6343 0.6446,45.50888 1.2164,92.27338 0.5091,41.6362 0.7843,62.9166 0.9221,71.3052 0.077,4.6567 0.2687,20.0158 0.4269,34.1313 0.1582,14.1155 0.3662,29.1718 0.4623,33.4583 l 0.1746,7.7938 1.9844,1.1724 c 1.0914,0.6449 8.7114,5.1029 16.9333,9.9067 8.2219,4.8039 20.783,12.1506 27.9136,16.3261 7.1305,4.1754 16.2388,9.5009 20.2406,11.8344 4.0018,2.3335 9.3596,5.4633 11.9062,6.9552 10.4211,6.1048 22.1336,12.9576 31.75,18.5762 5.6026,3.2734 12.6868,7.4179 15.7427,9.2101 3.056,1.7921 12.5215,7.3272 21.0344,12.3002 29.0315,16.9594 44.6163,26.1566 64.6906,38.1767 63.5431,38.0482 108.3658,66.6801 114.1513,72.9178 0.5338,0.5755 0.6023,0.8167 0.3969,1.3986 -1.4809,4.1962 -25.6819,5.6 -113.2252,6.5679 -55.4468,0.613 -386.2834,0.8715 -491.88198,0.3843 z m 397.69028,-10.5788 c 69.6761,-0.4003 134.7659,-1.0288 149.225,-1.4407 2.6194,-0.075 7.5605,-0.2016 10.9802,-0.2821 12.6603,-0.2981 18.1385,-0.6963 17.4449,-1.2681 -0.8417,-0.6937 -29.784,-18.059 -46.8136,-28.0879 -1.528,-0.8999 -8.3146,-4.9119 -15.0813,-8.9157 -14.179,-8.3897 -39.2275,-23.1363 -58.3406,-34.3465 -7.2761,-4.2675 -16.682,-9.7847 -20.9021,-12.2605 -4.2201,-2.4758 -8.3278,-4.8764 -9.1281,-5.3346 -0.8004,-0.4583 -3.896,-2.2666 -6.8792,-4.0184 -2.9832,-1.7519 -11.3771,-6.6713 -18.6531,-10.9319 -7.2761,-4.2607 -15.6104,-9.1417 -18.5209,-10.8467 -5.3351,-3.1254 -16.5771,-9.7009 -29.501,-17.2551 -3.8563,-2.2541 -16.1197,-9.4281 -27.2521,-15.9423 -11.1323,-6.5142 -22.0861,-12.9212 -24.3416,-14.2378 -2.2556,-1.3165 -7.0776,-4.1402 -10.7157,-6.2748 -3.638,-2.1345 -9.1149,-5.3444 -12.1708,-7.133 -3.0559,-1.7885 -6.6347,-3.8902 -7.9529,-4.6703 l -2.3966,-1.4185 -0.3217,-24.6769 c -0.1769,-13.5723 -0.4381,-34.2615 -0.5804,-45.9759 -0.1423,-11.7144 -0.4935,-39.0988 -0.7804,-60.8542 -0.2868,-21.7553 -0.6503,-50.1518 -0.8078,-63.1031 -0.473,-38.8993 -0.7126,-53.32808 -0.8885,-53.50408 -0.2384,-0.2383 -358.80508,0.4404 -372.82798,0.7058 -14.6422,0.2771 -20.7795,0.4701 -30.427,0.9566 -17.9078,0.903 -23.4844,2.3649 -21.012,5.5081 0.3034,0.38568 5.2148,4.19378 10.9141,8.46248 23.7061,17.7553 52.7758,40.7844 91.1927,72.2429 10.5728,8.6578 13.8481,11.3658 31.8822,26.3601 27.1993,22.6145 61.8537,52.1429 77.1261,65.7177 1.9645,1.7462 5.715,5.0806 8.3344,7.4099 11.8414,10.5299 24.2383,22.3921 26.6417,25.4925 l 1.0819,1.3958 -0.15,2.0438 c -0.3886,5.2933 -3.4642,9.9916 -12.3423,18.8541 -12.8268,12.8045 -40.7106,35.879 -104.5402,86.5096 -8.2857,6.5723 -29.3507,23.2887 -44.8664,35.6044 -9.7868,7.7683 -30.5043,24.2369 -44.5504,35.4136 -10.9419,8.7067 -34.6813,27.6656 -38.5624,30.797 -2.0998,1.6941 -3.5052,3.0149 -3.5058,3.2946 0,0.6584 1.4029,1.4335 3.4286,1.8925 8.6496,1.9597 38.3297,3.141 93.408,3.7177 7.4943,0.079 18.9243,0.219 25.4,0.3123 40.0468,0.5768 342.10268,0.6373 437.75308,0.088 z m 2103.70212,10.5791 c -142.8883,-0.6622 -195.7596,-2.2388 -198.8218,-5.9285 -0.465,-0.5602 0.7148,-1.7337 4.8587,-4.8329 15.385,-11.5061 66.5023,-43.33 125.5683,-78.1747 11.5698,-6.8253 15.434,-9.0906 37.174,-21.7916 60.4551,-35.3195 118.8664,-69.9144 141.2668,-83.6676 11.648,-7.1516 13.0011,-8.1558 14.8209,-11.0009 4.6456,-7.2619 6.3614,-23.0723 7.4131,-68.3058 0.521,-22.407 0.8472,-40.7567 1.075,-60.4573 0.2143,-18.5287 0.8896,-69.504 1.187,-89.6274 0.1447,-9.7861 0.2632,-19.92188 0.2632,-22.52388 v -4.731 l 16.4703,-0.1699 c 9.0586,-0.093 37.5444,-0.2835 63.3016,-0.4223 50.2401,-0.2708 65.2822,-0.3656 135.5989,-0.854 62.747,-0.4359 180.0326,-0.4371 197.3792,0 36.2799,0.9099 49.2625,2.2158 50.8119,5.1113 0.4641,0.8671 -0.6027,2.2313 -5.6732,7.2535 -16.5692,16.41158 -63.2489,55.84208 -123.7199,104.50698 -8.6585,6.968 -17.8859,14.4098 -20.5052,16.5372 -25.7713,20.9316 -37.4687,30.5154 -53.5782,43.8968 -23.781,19.754 -38.1873,32.0903 -48.3468,41.3996 -5.2247,4.7876 -6.2777,6.0012 -6.0375,6.9584 0.3461,1.379 9.2655,9.9613 21.8406,21.0157 15.1638,13.33 49.8313,42.2751 74.5963,62.2833 1.8011,1.4552 4.6162,3.7409 6.2556,5.0794 1.6393,1.3385 11.4133,9.191 21.7202,17.4502 27.342,21.9104 36.8159,29.5751 53.3998,43.2012 30.0116,24.6594 54.7124,45.7423 68.3947,58.3775 5.47,5.0513 10.9059,10.5881 11.4745,11.6875 0.576,1.1141 0.053,1.7413 -2.0153,2.4164 -5.7441,1.8746 -19.286,2.8748 -52.3217,3.8644 -20.4136,0.6116 -68.581,1.1274 -136.3927,1.4603 -57.6143,0.283 -345.7665,0.276 -407.4583,-0.01 z m 499.6458,-10.5464 78.4294,-0.1597 -4.4784,-3.6013 c -2.463,-1.9806 -7.6332,-6.1424 -11.4895,-9.2482 -8.0219,-6.4609 -53.5046,-42.8534 -68.1302,-54.5137 -5.3843,-4.2926 -13.9182,-11.0964 -18.964,-15.1195 -8.9488,-7.1348 -20.4864,-16.3261 -39.7457,-31.6628 -71.1393,-56.6501 -88.0399,-70.8207 -98.1652,-82.3077 -6.0225,-6.8322 -8.2333,-11.1888 -8.5262,-16.8011 -0.4474,-8.576 3.2298,-14.901 16.1536,-27.785 14.4037,-14.3595 37.7309,-33.9571 97.9165,-82.2617 36.6593,-29.4224 48.6994,-39.0979 79.5091,-63.893 11.4819,-9.2405 39.6354,-31.9934 43.3007,-34.9945 4.9289,-4.03588 5.258,-4.55248 3.6086,-5.66408 -2.4458,-1.6481 -11.8864,-2.7228 -29.976,-3.4124 -2.11,-0.08 -5.3247,-0.2054 -7.1437,-0.2777 -21.042,-0.8366 -91.5622,-1.1745 -246.1077,-1.1792 h -136.438 l -0.1196,91.74428 c -0.1201,92.0188 -0.1841,98.6652 -1.1226,116.4828 -1.2997,24.6728 -3.7934,33.1404 -11.5155,39.1023 -5.9767,4.6143 -25.5976,17.2401 -51.9747,33.4449 -14.2735,8.769 -39.4198,23.97 -51.9907,31.4288 -3.8563,2.2881 -9.5355,5.6623 -12.6206,7.4981 -9.6776,5.7589 -31.6725,18.6742 -53.9221,31.6627 -11.7872,6.8809 -23.3958,13.6662 -25.7968,15.0784 -2.4011,1.4122 -7.2827,4.2729 -10.848,6.357 -3.5652,2.0842 -9.4588,5.5363 -13.0968,7.6714 -3.6381,2.1352 -10.5437,6.1837 -15.3459,8.9968 -29.9332,17.5347 -66.0086,38.8414 -68.8454,40.6613 l -1.5337,0.9839 0.926,0.1954 c 2.7018,0.5701 66.0096,1.2005 153.5906,1.5294 63.2365,0.2374 405.7693,0.2696 514.4625,0.048 z m -2354.90422,-11.2423 c -10.9326,-3.5884 -43.1073,-20.4516 -78.4489,-41.1163 -42.1853,-24.6663 -67.878,-41.6551 -72.9405,-48.2304 -1.9411,-2.5211 -2.0929,-3.8251 -0.5437,-4.6717 1.2921,-0.7061 8.1778,-0.6156 12.63,0.1661 14.5069,2.5467 30.6931,6.7096 65.3521,16.8075 2.1101,0.6147 22.6186,6.7557 45.5745,13.6464 l 41.738,12.5288 -0.01,14.0427 c -0.011,26.6349 -0.7029,32.5229 -4.1911,35.6743 -2.0245,1.829 -5.6965,2.2908 -9.1645,1.1526 z m -1.3747,-16.0437 c 0.909,-0.715 1.8714,-2.8305 2.4645,-5.4175 0.6923,-3.0192 0.6889,-8.7086 -0.01,-10.7156 -2.1946,-6.3351 -8.2531,-9.7558 -28.5669,-16.1292 -23.7022,-7.4366 -50.3439,-14.09 -52.0206,-12.9915 -0.3283,0.215 -0.2401,0.4188 0.5291,1.2231 5.5325,5.785 59.8455,38.093 73.4188,43.6732 2.4802,1.0196 3.2555,1.0859 4.1816,0.3575 z m 1611.30442,16.2952 c -5.2022,-1.2607 -6.741,-6.1717 -6.7616,-21.5804 -0.019,-13.8557 2.2569,-24.3237 6.1601,-28.3385 1.0183,-1.0475 1.7074,-1.4256 4.7625,-2.6129 4.7735,-1.8553 26.1755,-8.9632 33.7344,-11.2036 0.7276,-0.2157 4.478,-1.3667 8.3343,-2.5577 6.5937,-2.0365 25.779,-7.8143 31.6177,-9.522 1.4553,-0.4255 4.4318,-1.3044 6.6146,-1.9528 2.1828,-0.6485 8.9694,-2.6092 15.0813,-4.3571 30.7341,-8.7893 48.2193,-13.2741 51.7525,-13.2741 3.633,0 6.8527,2.8451 6.8527,6.0556 0,0.8888 -0.2035,1.2682 -1.3587,2.5321 -6.5933,7.214 -40.1122,28.7911 -80.6621,51.9243 -33.1499,18.9115 -60.2001,32.5754 -69.0071,34.8575 -1.8713,0.4849 -5.1846,0.4987 -7.1206,0.03 z m 15.6032,-17.9137 c 4.2841,-1.4671 10.8192,-5.1516 39.3578,-22.19 20.6979,-12.3572 25.4295,-15.4715 29.6995,-19.5477 1.726,-1.6477 1.683,-2.1457 -0.185,-2.1457 -6.8649,0 -49.3994,12.2623 -61.5289,17.7383 -7.2997,3.2955 -10.5398,6.328 -11.786,11.0307 -0.4459,1.6829 -0.859,11.7039 -0.5502,13.3496 0.099,0.5252 0.4227,1.2646 0.7205,1.6432 0.6886,0.8753 1.9651,0.9117 4.2723,0.1216 z"
       id="path826"
       inkscape:connector-curvature="0" />
  </g>
</svg>
